<svg width="500" height="500" viewBox="0 0 500 500" fill="none" xmlns="http://www.w3.org/2000/svg">
<mask id="mask0_352_2" style="mask-type:luminance" maskUnits="userSpaceOnUse" x="38" y="25" width="124" height="134">
<path d="M38.6666 25.3335H161.333V158.667H38.6666V25.3335Z" fill="white"/>
</mask>
<g mask="url(#mask0_352_2)">
<mask id="mask1_352_2" style="mask-type:luminance" maskUnits="userSpaceOnUse" x="-23" y="-48" width="510" height="570">
<path d="M-22.2552 38.3597L384.76 -47.6299L486.88 435.698L79.8645 521.693L-22.2552 38.3597Z" fill="white"/>
</mask>
<g mask="url(#mask1_352_2)">
<mask id="mask2_352_2" style="mask-type:luminance" maskUnits="userSpaceOnUse" x="-23" y="-48" width="510" height="570">
<path d="M-22.2552 38.3597L384.76 -47.6299L486.88 435.698L79.8645 521.693L-22.2552 38.3597Z" fill="white"/>
</mask>
<g mask="url(#mask2_352_2)">
<path d="M94.1353 126.693C101.182 134.506 109.979 140.651 119.083 145.761C123.661 148.276 128.427 150.511 133.312 152.11C138.156 153.61 143.375 154.756 147.766 153.605C152.208 152.558 154.484 148.448 155.088 143.646C155.646 138.865 155.365 133.625 154.125 128.881C152.865 124.047 150.677 119.428 148.219 114.86C145.786 110.313 143.099 105.709 140.453 101.204C137.781 96.74 134.948 92.4067 131.656 88.5004C128.354 84.6306 124.552 81.1254 120.474 77.9171C112.224 71.6306 103.297 65.8233 94.6145 59.8494C85.901 53.8858 77.0624 48.1306 68.2083 42.3806L54.7864 33.9483C50.4114 31.2036 45.6145 28.1879 41.026 29.1931L42.0572 27.5577C44.6458 36.3077 52.3333 42.214 58.328 49.7504C61.3905 53.4483 64.1197 57.9171 65.6093 62.589C67.1978 67.2296 68.1353 71.8546 69.4947 76.2608C72.1562 85.1254 76.0937 93.74 79.9374 102.375C83.7499 110.995 88.078 119.454 94.1353 126.693ZM93.7916 126.985C87.6614 119.74 83.0572 111.375 78.5103 103.079C74.1093 94.7296 69.3645 86.49 66.0312 77.4171C64.3541 72.8754 63.2864 68.24 61.7499 63.9379C60.2343 59.6411 58.151 55.8077 55.2395 52.2088C52.4114 48.589 49.1301 45.1775 46.2291 41.2973C43.3072 37.4744 40.6718 33.115 39.4947 28.2296L39.1614 26.8286L40.5364 26.6098C43.5364 26.1046 46.4791 26.9536 48.9166 28.1879C51.3958 29.4171 53.5624 31.0213 55.7603 32.4536L68.9687 41.1879C77.8749 46.8546 86.776 52.5421 95.8072 57.9952C104.75 63.6358 114.005 68.6463 122.719 74.9588C127.052 78.1098 131.25 81.6046 134.844 85.7244C138.453 89.8233 141.516 94.2921 144.354 98.8338C149.76 107.87 155.911 116.771 158.755 127.698C159.448 130.365 159.885 133.219 159.969 135.964C160.193 138.678 160.109 141.516 159.708 144.344C159.203 147.157 158.531 150.157 156.542 152.672C154.672 155.24 151.713 157.026 148.745 157.615C142.724 158.818 137.219 157.084 132.229 155.084C127.203 152.995 122.562 150.297 118.088 147.412C109.276 141.448 100.885 134.917 93.7916 126.985Z" fill="#C2DCD2"/>
</g>
</g>
</g>
<mask id="mask3_352_2" style="mask-type:luminance" maskUnits="userSpaceOnUse" x="17" y="117" width="143" height="93">
<path d="M17.3334 117.333H160V209.333H17.3334V117.333Z" fill="white"/>
</mask>
<g mask="url(#mask3_352_2)">
<mask id="mask4_352_2" style="mask-type:luminance" maskUnits="userSpaceOnUse" x="-23" y="-48" width="510" height="570">
<path d="M-22.2551 38.3597L384.76 -47.6299L486.88 435.698L79.8647 521.693L-22.2551 38.3597Z" fill="white"/>
</mask>
<g mask="url(#mask4_352_2)">
<mask id="mask5_352_2" style="mask-type:luminance" maskUnits="userSpaceOnUse" x="-23" y="-48" width="510" height="570">
<path d="M-22.2551 38.3597L384.76 -47.6299L486.88 435.698L79.8647 521.693L-22.2551 38.3597Z" fill="white"/>
</mask>
<g mask="url(#mask5_352_2)">
<path d="M144.859 162.579C140.443 159.125 135.547 156.48 130.443 154.303C125.365 152.042 120.104 150.23 114.771 148.792C104.182 145.49 93.047 145.318 81.8022 143.61C76.2136 142.761 70.5782 141.782 65.1199 139.948C59.6355 138.219 54.4584 135.74 49.4792 133.094C39.573 127.855 29.7709 121.995 18.7553 120.214L19.6042 119.006C26.8803 131.474 36.0782 142.698 46.0209 152.99C51.047 158.094 56.2917 162.99 61.8126 167.511C67.3126 172.006 73.2136 175.875 79.672 177.954C86.1407 180.011 93.2553 180.292 100.464 180.61C104.104 180.745 107.734 180.917 111.505 181.448C115.323 182 118.943 183.099 122.401 184.464C136.188 190.042 148.104 198.683 159.292 207.881L159.021 208.245C146.948 200.344 134.417 192.808 121.078 188.058C117.76 186.896 114.354 186.037 110.984 185.698C107.563 185.355 103.927 185.386 100.328 185.277C93.1303 185.105 85.5365 185.058 78.1772 182.636C70.7397 180.303 64.5209 175.704 58.9167 170.98C53.3542 166.167 48.0886 161.099 43.2136 155.625C33.349 144.766 25.2553 132.5 18.1876 119.797L17.3542 118.282L19.0417 118.605C30.3126 120.808 40.2709 126.547 50.4688 131.079C55.573 133.349 60.7188 135.396 66.0574 136.698C71.3907 137.98 76.8386 138.933 82.3595 139.62C87.8907 140.256 93.4532 140.98 99.0574 141.766C104.667 142.532 110.344 143.803 115.734 145.589C126.406 149.318 137.12 154.105 145.177 162.24L144.859 162.579Z" fill="#C2DCD2"/>
</g>
</g>
</g>
<mask id="mask6_352_2" style="mask-type:luminance" maskUnits="userSpaceOnUse" x="144" y="57" width="63" height="143">
<path d="M144 57.3335H206.667V200H144V57.3335Z" fill="white"/>
</mask>
<g mask="url(#mask6_352_2)">
<mask id="mask7_352_2" style="mask-type:luminance" maskUnits="userSpaceOnUse" x="-23" y="-48" width="510" height="570">
<path d="M-22.2552 38.3597L384.76 -47.6299L486.88 435.698L79.8645 521.693L-22.2552 38.3597Z" fill="white"/>
</mask>
<g mask="url(#mask7_352_2)">
<mask id="mask8_352_2" style="mask-type:luminance" maskUnits="userSpaceOnUse" x="-23" y="-48" width="510" height="570">
<path d="M-22.2552 38.3597L384.76 -47.6299L486.88 435.698L79.8645 521.693L-22.2552 38.3597Z" fill="white"/>
</mask>
<g mask="url(#mask8_352_2)">
<path d="M155.599 198.771C162.391 196.948 168.943 194.313 174.615 190.391C180.266 186.469 185.172 181.532 189.26 176.047C193.312 170.495 196.427 164.297 198.865 157.87C201.276 151.448 203.078 144.714 203.807 137.808C205.432 123.953 202.766 109.688 197.583 96.6826C192.307 83.6357 184.823 71.667 176.776 60.2243L180.109 57.7139C183.49 61.693 185.036 66.818 185.51 71.6878C186.016 76.5889 185.63 81.3857 185.088 86.0472C183.948 95.3128 182.354 104.594 179.63 113.657C176.838 122.646 172.922 131.479 167.094 139.026C161.323 146.542 153.656 152.802 144.734 155.792L144.568 155.365C152.854 151.276 159.557 144.724 164.536 137.209C169.516 129.657 172.995 121.193 175.224 112.396C177.604 103.61 178.984 94.5576 180.224 85.4378C180.838 80.9222 181.323 76.443 180.974 72.0941C180.667 67.7555 179.474 63.5941 176.88 60.3649L180.219 57.8753C188.052 69.7712 194.594 82.6045 199.208 96.0785C203.901 109.49 206.823 123.584 206.594 138.011C206.229 152.412 201.297 166.875 192.26 178.302C183.547 189.959 169.896 197.943 155.641 199.224L155.599 198.771Z" fill="#C2DCD2"/>
</g>
</g>
</g>
<mask id="mask9_352_2" style="mask-type:luminance" maskUnits="userSpaceOnUse" x="13" y="206" width="161" height="50">
<path d="M13.3334 206.667H173.333V256H13.3334V206.667Z" fill="white"/>
</mask>
<g mask="url(#mask9_352_2)">
<mask id="mask10_352_2" style="mask-type:luminance" maskUnits="userSpaceOnUse" x="-23" y="-48" width="510" height="570">
<path d="M-22.2551 38.3592L384.76 -47.6304L486.88 435.698L79.8647 521.693L-22.2551 38.3592Z" fill="white"/>
</mask>
<g mask="url(#mask10_352_2)">
<mask id="mask11_352_2" style="mask-type:luminance" maskUnits="userSpaceOnUse" x="-23" y="-48" width="510" height="570">
<path d="M-22.2551 38.3592L384.76 -47.6304L486.88 435.698L79.8647 521.693L-22.2551 38.3592Z" fill="white"/>
</mask>
<g mask="url(#mask11_352_2)">
<path d="M163.438 230.203C157.078 230.771 150.609 229.599 144.516 227.698C138.417 225.745 132.557 223.214 126.781 220.729C115.328 215.562 103.547 211.484 91.2657 212.953C85.125 213.531 78.823 214.458 72.4636 214.938C66.099 215.417 59.7344 215.438 53.3907 215.302C40.698 214.927 28.0938 213.391 15.6511 210.703L16.7969 209.078C20.6146 214.589 26.5521 218.208 32.8073 220.464C39.0834 222.797 45.8125 223.714 52.6511 224.521C59.448 225.328 66.5 226.12 73.3646 227.76C80.2396 229.349 86.9167 231.583 93.4427 234C106.495 238.865 118.974 244.755 132.036 248.802C145.021 252.854 158.729 255.422 172.464 253.406L172.563 253.87C159 257.396 144.484 255.875 131.036 252.349C117.448 248.792 104.594 243.37 91.7136 238.615C85.2813 236.234 78.8021 234.068 72.2448 232.328C65.698 230.599 58.9844 229.661 52.0782 228.708C45.2292 227.667 38.1667 226.401 31.5521 223.578C25.0313 220.781 18.8646 216.427 15.0209 210.26L13.5677 207.922L16.1719 208.641C28.2605 211.995 40.8542 213.661 53.4063 213.552C59.6823 213.547 65.9584 212.906 72.1511 212.073C78.3438 211.323 84.4427 209.698 90.8855 209.057C97.2709 208.281 104.115 208.583 110.349 210.484C116.63 212.234 122.505 214.859 128.234 217.552C139.557 223.057 150.729 229.151 163.427 229.74L163.438 230.203Z" fill="#C2DCD2"/>
</g>
</g>
</g>
<mask id="mask12_352_2" style="mask-type:luminance" maskUnits="userSpaceOnUse" x="182" y="134" width="100" height="181">
<path d="M182.667 134.667H281.333V314.667H182.667V134.667Z" fill="white"/>
</mask>
<g mask="url(#mask12_352_2)">
<mask id="mask13_352_2" style="mask-type:luminance" maskUnits="userSpaceOnUse" x="-23" y="-48" width="510" height="570">
<path d="M-22.2552 38.3592L384.76 -47.6304L486.88 435.698L79.8645 521.693L-22.2552 38.3592Z" fill="white"/>
</mask>
<g mask="url(#mask13_352_2)">
<mask id="mask14_352_2" style="mask-type:luminance" maskUnits="userSpaceOnUse" x="-23" y="-48" width="510" height="570">
<path d="M-22.2552 38.3592L384.76 -47.6304L486.88 435.698L79.8645 521.693L-22.2552 38.3592Z" fill="white"/>
</mask>
<g mask="url(#mask14_352_2)">
<path d="M216.875 313.807C216.99 297.432 214.943 281.203 210.625 265.562C209.474 261.166 209.958 256.588 211.151 252.468C212.333 248.317 214.156 244.474 216.109 240.817C220.078 233.536 224.5 226.583 229.156 219.797C238.594 206.333 248.943 193.614 257.76 179.838C262.167 172.958 266.286 165.885 269.734 158.51C273.12 151.093 275.964 143.458 277.99 135.63L280.875 136.38C279.208 144.099 274.75 150.953 269.26 156.343C263.797 161.88 257.234 166.104 250.578 169.718C237.245 176.922 223.432 182.489 212.786 192.489C202.208 202.453 194.062 215.057 189.359 228.979C184.708 242.885 183.344 258.031 186.089 272.755L185.651 272.849C181.521 258.364 181.839 242.609 185.99 227.922C190.385 213.333 198.266 199.567 209.568 189.026C215.219 183.797 221.646 179.349 228.339 175.739C235.062 172.166 241.943 169.187 248.479 165.781C255.052 162.406 261.224 158.484 266.531 153.552C271.828 148.64 276.052 142.573 277.984 135.687L280.87 136.437C275.818 152.271 267.807 166.812 258.995 180.609C250.234 194.5 240.859 207.974 232.203 221.823C227.854 228.708 223.557 235.619 219.724 242.76C215.865 249.687 212.401 257.343 214.104 264.698C217.99 280.76 219.193 297.515 217.339 313.838L216.875 313.807Z" fill="#C2DCD2"/>
</g>
</g>
</g>
<mask id="mask15_352_2" style="mask-type:luminance" maskUnits="userSpaceOnUse" x="45" y="269" width="150" height="65">
<path d="M45.3334 269.333H194.667V333.333H45.3334V269.333Z" fill="white"/>
</mask>
<g mask="url(#mask15_352_2)">
<mask id="mask16_352_2" style="mask-type:luminance" maskUnits="userSpaceOnUse" x="-23" y="-48" width="510" height="570">
<path d="M-22.2551 38.3597L384.76 -47.6299L486.88 435.698L79.8647 521.693L-22.2551 38.3597Z" fill="white"/>
</mask>
<g mask="url(#mask16_352_2)">
<mask id="mask17_352_2" style="mask-type:luminance" maskUnits="userSpaceOnUse" x="-23" y="-48" width="510" height="570">
<path d="M-22.2551 38.3597L384.76 -47.6299L486.88 435.698L79.8647 521.693L-22.2551 38.3597Z" fill="white"/>
</mask>
<g mask="url(#mask17_352_2)">
<path d="M184.698 277.412C173.068 272.724 160.099 272.094 148.448 275.605C142.609 277.318 137.162 280.146 132.484 283.964C127.859 287.87 123.203 292.303 118.141 296.24C108.011 304.053 96.6407 309.86 85.3126 315.422C73.896 320.818 62.396 325.99 50.9116 331.157L50.5522 328.839C76.2501 330.297 102.021 328.282 126.99 322.62C133.255 321.276 139.458 319.688 145.599 317.896C151.755 316.094 157.896 314.224 163.766 311.771C175.427 307.026 186.932 300.287 193.432 288.969L193.865 289.172C191.198 295.11 187.068 300.495 181.974 304.683C176.901 308.922 171.182 312.355 165.229 315.11C153.245 320.532 140.797 324.428 128.083 327.433C115.349 330.36 102.344 332 89.3335 332.709C76.297 333.401 63.2345 332.844 50.323 331.245L45.5157 330.641L49.9793 328.922C61.7293 324.417 73.4689 319.839 84.5782 313.954C95.7553 308.224 106.224 301.188 115.74 293.23C120.615 289.401 124.792 284.782 129.995 280.792C135.167 276.792 141.198 273.875 147.49 272.198C160.13 269.032 173.839 270.719 184.901 276.995L184.693 277.412" fill="#C2DCD2"/>
</g>
</g>
</g>
<mask id="mask18_352_2" style="mask-type:luminance" maskUnits="userSpaceOnUse" x="242" y="177" width="68" height="159">
<path d="M242.667 177.333H309.333V336H242.667V177.333Z" fill="white"/>
</mask>
<g mask="url(#mask18_352_2)">
<mask id="mask19_352_2" style="mask-type:luminance" maskUnits="userSpaceOnUse" x="-23" y="-48" width="510" height="570">
<path d="M-22.2552 38.3597L384.76 -47.6299L486.88 435.698L79.8645 521.693L-22.2552 38.3597Z" fill="white"/>
</mask>
<g mask="url(#mask19_352_2)">
<mask id="mask20_352_2" style="mask-type:luminance" maskUnits="userSpaceOnUse" x="-23" y="-48" width="510" height="570">
<path d="M-22.2552 38.3597L384.76 -47.6299L486.88 435.698L79.8645 521.693L-22.2552 38.3597Z" fill="white"/>
</mask>
<g mask="url(#mask20_352_2)">
<path d="M290.047 334.308C290.443 335.047 291.219 334.979 291.859 334.526C292.505 334.099 293.052 333.448 293.458 332.776C294.187 331.495 294.443 329.563 294.948 327.969L297.625 317.881C299.422 311.203 300.896 304.433 302.156 297.683C304.63 284.198 305.385 270.344 302.437 257.078C299.63 243.792 293.484 231.172 286.974 218.922C280.615 206.604 273.755 194.193 271.073 180.177L273.182 180.943C263.333 190.282 255.995 202.084 251.99 214.901C247.88 227.719 247.969 241.453 248.625 255.099C249.292 268.828 249.979 282.542 252.906 295.844C255.74 309.073 260.891 322.125 270.349 332.24L270.036 332.584C259.448 323.427 252.969 310.172 249.401 296.698C245.818 283.131 244.521 269.151 243.703 255.349C242.927 241.563 243.182 227.089 247.854 213.547C252.354 200.078 260.703 188.016 271.49 179.016L273.307 177.511L273.599 179.771C275.427 193.375 281.615 206.115 288.365 218.188C294.948 230.37 302.557 242.313 306.156 256.224C309.797 270.125 308.547 284.698 305.635 298.37C304.203 305.261 302.099 311.948 299.943 318.573C298.859 321.891 297.656 325.167 296.448 328.443C295.745 330.063 295.479 331.683 294.359 333.375C293.802 334.115 293.109 334.782 292.25 335.224C291.807 335.422 291.318 335.604 290.776 335.495C290.224 335.412 289.812 334.943 289.635 334.521L290.047 334.308Z" fill="#C2DCD2"/>
</g>
</g>
</g>
<mask id="mask21_352_2" style="mask-type:luminance" maskUnits="userSpaceOnUse" x="57" y="313" width="174" height="61">
<path d="M57.3334 313.333H230.667V373.333H57.3334V313.333Z" fill="white"/>
</mask>
<g mask="url(#mask21_352_2)">
<mask id="mask22_352_2" style="mask-type:luminance" maskUnits="userSpaceOnUse" x="-23" y="-48" width="510" height="570">
<path d="M-22.2551 38.3597L384.76 -47.6299L486.88 435.698L79.8647 521.693L-22.2551 38.3597Z" fill="white"/>
</mask>
<g mask="url(#mask22_352_2)">
<mask id="mask23_352_2" style="mask-type:luminance" maskUnits="userSpaceOnUse" x="-23" y="-48" width="510" height="570">
<path d="M-22.2551 38.3597L384.76 -47.6299L486.88 435.698L79.8647 521.693L-22.2551 38.3597Z" fill="white"/>
</mask>
<g mask="url(#mask23_352_2)">
<path d="M213.063 314.849C199.672 315.948 186.26 316.704 173.25 319.339C166.724 320.552 160.307 322.224 154.208 324.651C148.12 327.12 142.344 330.089 136.823 333.776C131.302 337.443 125.646 341.365 119.365 344.204C113.13 347.125 106.547 348.922 99.9949 350.49C86.8855 353.625 73.5157 355.526 61.0522 360.334L60.9949 358.49C75.8074 362.464 90.7397 366.287 105.802 367.615C113.323 368.329 120.875 368.282 128.276 367.23C135.682 366.198 142.901 364.047 150.026 361.495C157.083 358.829 164.151 355.954 171.068 352.589L191.995 343.058C205.531 336.198 221.74 332.573 229.724 318.75L230.12 318.98C228.344 322.417 226.135 325.657 223.422 328.516C220.693 331.355 217.469 333.714 214.083 335.641C207.271 339.474 200.521 342.907 193.62 346.396C179.776 353.204 166.396 360.724 151.703 366.11C137.162 371.797 120.854 373.756 105.385 371.74C89.8126 369.927 75.0626 365.032 60.448 360.349L57.6042 359.443L60.3907 358.5C73.2709 354.198 86.6667 352.329 99.5365 348.745C105.932 346.875 112.24 344.641 118.021 341.506C123.839 338.469 128.995 334.287 134.625 330.521C145.766 322.422 159.292 318.037 172.635 315.917C186.115 313.933 199.635 313.86 213.057 314.391L213.063 314.849Z" fill="#C2DCD2"/>
</g>
</g>
</g>
<mask id="mask24_352_2" style="mask-type:luminance" maskUnits="userSpaceOnUse" x="153" y="328" width="149" height="115">
<path d="M153.333 328H301.333V442.667H153.333V328Z" fill="white"/>
</mask>
<g mask="url(#mask24_352_2)">
<mask id="mask25_352_2" style="mask-type:luminance" maskUnits="userSpaceOnUse" x="-23" y="-48" width="510" height="570">
<path d="M-22.2551 38.3592L384.76 -47.6304L486.88 435.698L79.8647 521.693L-22.2551 38.3592Z" fill="white"/>
</mask>
<g mask="url(#mask25_352_2)">
<mask id="mask26_352_2" style="mask-type:luminance" maskUnits="userSpaceOnUse" x="-23" y="-48" width="510" height="570">
<path d="M-22.2551 38.3592L384.76 -47.6304L486.88 435.698L79.8647 521.693L-22.2551 38.3592Z" fill="white"/>
</mask>
<g mask="url(#mask26_352_2)">
<path d="M258.234 329.26C251.781 329.76 245.943 332.614 240.635 336.073C235.318 339.552 230.156 343.458 225.828 347.984C221.333 352.427 218.089 357.625 215.943 363.604C214.802 366.568 213.781 369.661 212.458 372.719C211.089 375.75 209.537 378.672 207.839 381.521C204.49 387.198 200.443 392.359 196.328 397.39L183.87 412.307C179.771 417.318 175.547 422.239 171.156 427.01C166.859 431.859 162.302 436.489 157.5 440.89L156.755 439.276C171.63 436.745 186.234 432.651 200.057 426.969C213.922 421.328 226.854 413.609 238.031 403.828C249.214 394.021 259.146 382.552 269.271 371.302C279.391 360.031 289.714 348.916 300.052 337.823L300.412 338.12C291.229 350.198 281.75 362.052 272.094 373.76C262.464 385.443 252.917 397.349 241.26 407.541C229.635 417.771 215.87 425.297 201.563 430.771C187.188 436.198 172.109 439.26 157.01 441.104L153.932 441.495L156.287 439.51C161.193 435.359 165.734 430.791 170.135 426.068C174.417 421.26 178.458 416.224 182.422 411.135C190.037 400.729 198 390.411 204.427 379.5C207.662 374.005 209.859 368.276 212.302 362.146C214.646 355.979 218.526 350.041 223.391 345.515C228.302 340.958 233.76 337.344 239.443 334.078C245.167 330.953 251.635 328.463 258.229 328.802L258.234 329.26Z" fill="#C2DCD2"/>
</g>
</g>
</g>
<mask id="mask27_352_2" style="mask-type:luminance" maskUnits="userSpaceOnUse" x="329" y="194" width="91" height="157">
<path d="M329.333 194.667H420V350.667H329.333V194.667Z" fill="white"/>
</mask>
<g mask="url(#mask27_352_2)">
<mask id="mask28_352_2" style="mask-type:luminance" maskUnits="userSpaceOnUse" x="-23" y="-48" width="510" height="570">
<path d="M-22.2551 38.3592L384.76 -47.6304L486.88 435.698L79.8647 521.693L-22.2551 38.3592Z" fill="white"/>
</mask>
<g mask="url(#mask28_352_2)">
<mask id="mask29_352_2" style="mask-type:luminance" maskUnits="userSpaceOnUse" x="-23" y="-48" width="510" height="570">
<path d="M-22.2551 38.3592L384.76 -47.6304L486.88 435.698L79.8647 521.693L-22.2551 38.3592Z" fill="white"/>
</mask>
<g mask="url(#mask29_352_2)">
<path d="M416.979 349.557C418.51 342.343 418.339 334.984 416.828 327.922C415.281 320.859 412.667 313.906 410.625 306.843C406.224 292.823 401.156 279.125 393.162 266.984C385.156 254.812 375.188 243.776 364.484 233.646C353.938 223.354 342.99 213.458 332.167 203.463L335.005 201.63C339.208 213.005 343.323 224.453 346.854 236.135C350.458 247.765 353.359 259.765 355.099 271.828C357.021 283.812 358.432 295.791 362.151 307.135C365.734 318.422 371.469 329.364 380.693 337.286L380.422 337.651C375.412 334.161 371.026 329.698 367.474 324.646C363.969 319.567 361.172 314.01 358.912 308.265C354.641 296.666 352.453 284.5 350.385 272.599C348.328 260.698 345.719 249.041 342.432 237.422C339.167 225.807 335.375 214.312 331.708 202.771L329.448 195.661L334.537 200.922C344.833 211.562 354.995 222.281 365.516 232.614C368.12 235.25 370.823 237.771 373.5 240.317L381.25 248.255C386.432 253.531 391.448 259.047 395.922 265.057C400.479 271.021 404.057 277.755 407.016 284.625C409.912 291.526 412.073 298.692 414.104 305.791C416.104 312.922 418.141 320.021 419.328 327.463C420.531 334.927 419.833 342.677 417.427 349.682L416.979 349.557Z" fill="#C2DCD2"/>
</g>
</g>
</g>
<mask id="mask30_352_2" style="mask-type:luminance" maskUnits="userSpaceOnUse" x="225" y="365" width="197" height="85">
<path d="M225.333 365.333H421.333V449.333H225.333V365.333Z" fill="white"/>
</mask>
<g mask="url(#mask30_352_2)">
<mask id="mask31_352_2" style="mask-type:luminance" maskUnits="userSpaceOnUse" x="-23" y="-48" width="510" height="570">
<path d="M-22.2551 38.3597L384.76 -47.6299L486.88 435.698L79.8647 521.693L-22.2551 38.3597Z" fill="white"/>
</mask>
<g mask="url(#mask31_352_2)">
<mask id="mask32_352_2" style="mask-type:luminance" maskUnits="userSpaceOnUse" x="-23" y="-48" width="510" height="570">
<path d="M-22.2551 38.3597L384.76 -47.6299L486.88 435.698L79.8647 521.693L-22.2551 38.3597Z" fill="white"/>
</mask>
<g mask="url(#mask32_352_2)">
<path d="M406.75 369.912C390.349 368.094 373.828 368.417 357.75 371.37C349.708 372.662 341.787 374.761 334.073 377.365C326.365 380.026 318.761 382.98 311.526 386.73C304.287 390.454 297.094 394.407 290.49 399.224C283.787 403.917 277.474 409.245 271.094 414.521C264.688 419.776 257.953 424.657 250.922 429.052C243.875 433.417 236.5 437.271 228.88 440.615L228.901 438.511C245.047 444.636 262.62 445.693 279.682 443.839C296.823 442.089 313.552 437.375 330.052 432.141C346.453 426.636 362.495 420.042 377.787 411.896C393.026 403.704 407.563 394.063 420.865 382.782L421.177 383.12C408.849 395.521 394.729 406.183 379.563 415.094C364.386 423.933 348.229 431.141 331.563 436.693C314.922 442.282 297.714 446.579 280.078 448.089C262.505 449.677 244.271 447.745 228.016 440.61L225.438 439.485L228.026 438.495C243.354 432.693 257.662 424.073 270.005 413.214C276.328 407.938 282.229 402.131 288.849 397.026C295.349 391.829 302.37 387.235 309.755 383.313C324.474 375.344 340.719 370.401 357.203 367.896C373.734 365.511 390.636 365.969 406.818 369.454L406.75 369.912Z" fill="#C2DCD2"/>
</g>
</g>
</g>
<mask id="mask33_352_2" style="mask-type:luminance" maskUnits="userSpaceOnUse" x="226" y="373" width="184" height="69">
<path d="M226.667 373.333H409.333V441.333H226.667V373.333Z" fill="white"/>
</mask>
<g mask="url(#mask33_352_2)">
<mask id="mask34_352_2" style="mask-type:luminance" maskUnits="userSpaceOnUse" x="-23" y="-48" width="510" height="570">
<path d="M-22.2552 38.3597L384.76 -47.6299L486.88 435.698L79.8645 521.693L-22.2552 38.3597Z" fill="white"/>
</mask>
<g mask="url(#mask34_352_2)">
<mask id="mask35_352_2" style="mask-type:luminance" maskUnits="userSpaceOnUse" x="-23" y="-48" width="510" height="570">
<path d="M-22.2552 38.3597L384.76 -47.6299L486.88 435.698L79.8645 521.693L-22.2552 38.3597Z" fill="white"/>
</mask>
<g mask="url(#mask35_352_2)">
<path d="M227.385 436.678C243.651 438.98 259.771 437.698 275.615 434.605C283.568 433.204 291.552 431.438 299.245 428.73C306.932 425.985 314.297 422.402 321.396 418.381C335.557 410.287 349.375 401.62 363.62 393.474C377.948 385.553 392.823 378.136 408.646 373.485L408.818 373.928C394.141 381.25 380.135 389.454 366.052 397.75C351.885 405.823 337.62 414.027 322.521 420.646C315 423.985 307.406 427.094 299.781 430.125C292.156 433.172 284.464 436.25 276.422 438.355C260.391 442.313 242.943 442.521 227.276 437.125L227.385 436.678Z" fill="#C2DCD2"/>
</g>
</g>
</g>
<mask id="mask36_352_2" style="mask-type:luminance" maskUnits="userSpaceOnUse" x="338" y="214" width="66" height="132">
<path d="M338.667 214.667H404V345.333H338.667V214.667Z" fill="white"/>
</mask>
<g mask="url(#mask36_352_2)">
<mask id="mask37_352_2" style="mask-type:luminance" maskUnits="userSpaceOnUse" x="-23" y="-48" width="510" height="570">
<path d="M-22.2552 38.3592L384.76 -47.6304L486.88 435.698L79.8645 521.693L-22.2552 38.3592Z" fill="white"/>
</mask>
<g mask="url(#mask37_352_2)">
<mask id="mask38_352_2" style="mask-type:luminance" maskUnits="userSpaceOnUse" x="-23" y="-48" width="510" height="570">
<path d="M-22.2552 38.3592L384.76 -47.6304L486.88 435.698L79.8645 521.693L-22.2552 38.3592Z" fill="white"/>
</mask>
<g mask="url(#mask38_352_2)">
<path d="M402.974 344.083C399.906 332.359 396.021 321.286 391.635 310.208C389.589 304.64 387.495 298.989 384.745 293.64C382.016 288.307 378.661 283.307 375.115 278.458C367.958 268.828 360.729 259.203 354.302 248.901C348.01 238.468 343.198 227.187 339.839 215.562L340.266 215.38C346.328 225.88 351.953 236.364 358.49 246.307C364.771 256.432 371.5 266.427 377.24 277.109C380.151 282.422 383 287.729 386.068 292.916C389.12 298.125 392.443 303.229 395.161 308.692C400.318 319.677 403.531 331.833 403.437 344.021L402.974 344.083Z" fill="#C2DCD2"/>
</g>
</g>
</g>
<mask id="mask39_352_2" style="mask-type:luminance" maskUnits="userSpaceOnUse" x="156" y="180" width="127" height="262">
<path d="M156 180H282.667V441.333H156V180Z" fill="white"/>
</mask>
<g mask="url(#mask39_352_2)">
<mask id="mask40_352_2" style="mask-type:luminance" maskUnits="userSpaceOnUse" x="-23" y="-48" width="510" height="570">
<path d="M-22.2552 38.3592L384.76 -47.6304L486.88 435.698L79.8645 521.693L-22.2552 38.3592Z" fill="white"/>
</mask>
<g mask="url(#mask40_352_2)">
<mask id="mask41_352_2" style="mask-type:luminance" maskUnits="userSpaceOnUse" x="-23" y="-48" width="510" height="570">
<path d="M-22.2552 38.3592L384.76 -47.6304L486.88 435.698L79.8645 521.693L-22.2552 38.3592Z" fill="white"/>
</mask>
<g mask="url(#mask41_352_2)">
<path d="M156.208 439.911C181.062 430.318 201.047 412.562 219.307 393.734C237.984 375.114 255.151 354.568 273.667 335.812C275.729 333.375 277.401 330.661 278.057 327.745C278.698 324.844 278.37 321.729 277.766 318.599C276.302 312.312 274.687 305.698 273.479 299.193C271.005 286.094 269.099 272.87 268.234 259.557C267.338 246.25 267.437 232.88 268.187 219.594C268.583 212.943 269.245 206.318 270.078 199.713C270.427 196.385 271.078 193.193 271.005 189.963C270.958 186.786 270.135 183.427 267.505 181.422L267.755 181.042C270.771 182.87 272.104 186.526 272.448 189.844C272.875 193.25 272.562 196.651 272.406 199.927C271.984 206.531 271.922 213.135 271.786 219.719C271.63 232.917 272.13 246.088 273.146 259.203C274.12 272.323 275.609 285.417 277.75 298.422L281.365 317.963C281.896 321.333 282.13 325 281.099 328.536C280.062 332.088 277.901 335.031 275.568 337.495C265.713 346.646 256.281 355.672 247.745 365.885C239.005 375.854 231.026 386.453 222.088 396.349C213.146 406.229 203.245 415.318 192.344 423.146C181.432 430.844 169.307 437.146 156.359 440.359L156.208 439.911Z" fill="#C2DCD2"/>
</g>
</g>
</g>
<mask id="mask42_352_2" style="mask-type:luminance" maskUnits="userSpaceOnUse" x="57" y="314" width="162" height="46">
<path d="M57.3334 314.667H218.667V360H57.3334V314.667Z" fill="white"/>
</mask>
<g mask="url(#mask42_352_2)">
<mask id="mask43_352_2" style="mask-type:luminance" maskUnits="userSpaceOnUse" x="-23" y="-48" width="510" height="570">
<path d="M-22.2551 38.3592L384.76 -47.6304L486.88 435.698L79.8647 521.693L-22.2551 38.3592Z" fill="white"/>
</mask>
<g mask="url(#mask43_352_2)">
<mask id="mask44_352_2" style="mask-type:luminance" maskUnits="userSpaceOnUse" x="-23" y="-48" width="510" height="570">
<path d="M-22.2551 38.3592L384.76 -47.6304L486.88 435.698L79.8647 521.693L-22.2551 38.3592Z" fill="white"/>
</mask>
<g mask="url(#mask44_352_2)">
<path d="M57.7865 357.854C71.7344 356.088 85.8334 355.869 99.6355 355.5C106.531 355.364 113.484 355 120.198 353.14C126.917 351.302 133.313 348.453 139.672 345.51C152.37 339.552 165.266 334.119 178.286 328.974C191.385 324.052 204.594 319.401 218.156 315.614L218.328 316.062C205.849 322.541 193.036 328.198 180.094 333.547C167.078 338.687 153.943 343.526 140.609 347.849C133.948 350.067 127.349 352.458 120.615 354.583C113.932 356.765 106.953 358.515 99.8907 359.328C92.8334 360.078 85.7813 359.916 78.8021 359.713C71.7865 359.448 64.7917 359.125 57.7917 358.317L57.7865 357.854Z" fill="#C2DCD2"/>
</g>
</g>
</g>
<mask id="mask45_352_2" style="mask-type:luminance" maskUnits="userSpaceOnUse" x="52" y="40" width="432" height="399">
<path d="M52 40H484V438.667H52V40Z" fill="white"/>
</mask>
<g mask="url(#mask45_352_2)">
<mask id="mask46_352_2" style="mask-type:luminance" maskUnits="userSpaceOnUse" x="-23" y="-48" width="510" height="570">
<path d="M-22.2552 38.3592L384.76 -47.6304L486.88 435.698L79.8645 521.693L-22.2552 38.3592Z" fill="white"/>
</mask>
<g mask="url(#mask46_352_2)">
<mask id="mask47_352_2" style="mask-type:luminance" maskUnits="userSpaceOnUse" x="-23" y="-48" width="510" height="570">
<path d="M-22.2552 38.3592L384.76 -47.6304L486.88 435.698L79.8645 521.693L-22.2552 38.3592Z" fill="white"/>
</mask>
<g mask="url(#mask47_352_2)">
<mask id="mask48_352_2" style="mask-type:luminance" maskUnits="userSpaceOnUse" x="48" y="-34" width="443" height="543">
<path d="M48.5833 38.9948L391.495 -33.4531L490.635 435.797L147.724 508.245L48.5833 38.9948Z" fill="white"/>
</mask>
<g mask="url(#mask48_352_2)">
<mask id="mask49_352_2" style="mask-type:luminance" maskUnits="userSpaceOnUse" x="48" y="-33" width="439" height="540">
<path d="M48.5833 38.9948L387.932 -32.7031L486.677 434.651L147.323 506.349L48.5833 38.9948Z" fill="white"/>
</mask>
<g mask="url(#mask49_352_2)">
<path d="M53.3905 40.2241C63.578 49.1356 73.078 58.8231 82.2499 68.7606C91.3749 78.745 100.219 88.9741 109.479 98.745C114.073 103.761 118.885 108.151 123.552 113.427C125.807 116.047 127.864 118.74 129.963 121.354C131.005 122.719 132.042 123.802 133.135 125.318C134.312 126.86 135.083 128.412 135.922 129.964C141.864 142.479 145.693 155.443 149.833 168.339C153.734 181.307 157.349 194.333 161.068 207.318C164.729 220.281 168.338 233.292 172.807 245.969C177.286 258.63 182.604 271.078 189.88 282.354C193.557 287.964 197.661 293.287 202.26 298.151C206.927 302.969 212.088 307.287 217.594 311.115C228.786 318.526 241.333 323.776 254.297 327.276C267.292 330.75 280.646 332.682 294.062 333.88C320.854 336.318 348.016 335.719 375.005 339.667C388.437 341.781 401.906 344.714 414.62 349.985C427.354 355.099 439.411 362.401 449.448 371.901C459.51 381.354 467.849 392.333 475.422 403.604C479.026 409.167 483.594 415.177 483.958 423.115C484.187 427.068 482.469 431.203 479.661 433.964C478.234 435.396 476.495 436.568 474.432 437.193C472.401 437.854 470.005 437.844 467.927 436.964L467.156 436.656L466.797 435.974C454 412.615 437.068 391.307 415.807 375.104C394.547 358.938 369.396 348.125 343.177 342.287L343.266 341.844C356.531 344.245 369.599 347.875 382.141 352.958C394.651 358.125 406.588 364.771 417.536 372.781C439.542 388.792 457.276 410.177 470.812 433.714L469.656 432.688C471.771 433.557 474.417 432.672 476.375 430.698C478.328 428.688 479.443 426.047 479.276 423.255C479.083 417.354 475.203 411.813 471.474 406.261C463.969 395.162 455.792 384.516 446.099 375.479C436.557 366.302 425.172 359.24 412.911 354.172C400.672 348.974 387.552 345.979 374.364 343.761C347.896 339.354 320.766 339.396 293.802 336.401C280.328 334.922 266.901 332.641 253.833 328.901C240.781 325.271 228.099 319.87 216.823 312.255C211.193 308.432 205.911 304.099 201.114 299.261C196.396 294.365 192.156 289 188.364 283.354C180.766 272.052 174.995 259.63 170.161 246.953C160.536 221.537 153.87 195.292 145.854 169.552C141.896 156.724 138.114 143.62 132.562 131.651C131.812 130.203 131.099 128.735 130.213 127.578C129.359 126.323 128.088 124.932 127.109 123.615C124.995 120.932 122.989 118.24 120.854 115.714C118.771 113.188 116.385 110.87 114.021 108.391L107.151 100.896C88.9843 80.7762 72.677 59.1981 53.0936 40.5627L53.3905 40.2241Z" fill="#C2DCD2"/>
</g>
</g>
</g>
</g>
</g>
<mask id="mask50_352_2" style="mask-type:luminance" maskUnits="userSpaceOnUse" x="17" y="77" width="181" height="105">
<path d="M17.3334 77.3335H197.333V181.333H17.3334V77.3335Z" fill="white"/>
</mask>
<g mask="url(#mask50_352_2)">
<mask id="mask51_352_2" style="mask-type:luminance" maskUnits="userSpaceOnUse" x="-23" y="-48" width="510" height="570">
<path d="M-22.2551 38.3597L384.76 -47.6299L486.88 435.698L79.8647 521.693L-22.2551 38.3597Z" fill="white"/>
</mask>
<g mask="url(#mask51_352_2)">
<mask id="mask52_352_2" style="mask-type:luminance" maskUnits="userSpaceOnUse" x="-23" y="-48" width="510" height="570">
<path d="M-22.2551 38.3597L384.76 -47.6299L486.88 435.698L79.8647 521.693L-22.2551 38.3597Z" fill="white"/>
</mask>
<g mask="url(#mask52_352_2)">
<path d="M18.9844 119.558C34.8646 135.204 54.698 145.245 75.1042 153.459C85.2657 157.714 95.6719 161.667 106.224 165.068L138.151 174.823C143.5 176.433 148.745 178.881 153.271 177.188C157.891 175.625 161.51 171.412 165.307 167.412C172.849 159.349 180.182 151.105 185.141 141.636C190.052 132.297 192.156 121.323 192.411 110.516C192.724 99.6255 190.943 88.6567 188.188 77.9015L188.641 77.7505C192.823 88.0786 195.604 99.1307 196.016 110.49C196.323 121.787 194.802 133.433 189.5 143.902C184.193 154.25 176.224 162.527 168.427 170.433C164.563 174.25 160.49 178.865 154.323 180.704C151.26 181.605 147.901 181.235 145.156 180.287C142.349 179.344 139.875 178.193 137.307 177.193C127.026 173.068 116.448 169.631 105.792 166.506C95.125 163.417 84.3021 160.735 73.724 157.042C63.1511 153.349 53.0313 148.323 43.5157 142.323C34.073 136.235 25.3594 128.818 18.6302 119.87L18.9844 119.558Z" fill="#C2DCD2"/>
</g>
</g>
</g>
<mask id="mask53_352_2" style="mask-type:luminance" maskUnits="userSpaceOnUse" x="18" y="212" width="149" height="36">
<path d="M18.6666 212H166.667V248H18.6666V212Z" fill="white"/>
</mask>
<g mask="url(#mask53_352_2)">
<mask id="mask54_352_2" style="mask-type:luminance" maskUnits="userSpaceOnUse" x="-23" y="-48" width="510" height="570">
<path d="M-22.2552 38.3592L384.76 -47.6304L486.88 435.698L79.8645 521.693L-22.2552 38.3592Z" fill="white"/>
</mask>
<g mask="url(#mask54_352_2)">
<mask id="mask55_352_2" style="mask-type:luminance" maskUnits="userSpaceOnUse" x="-23" y="-48" width="510" height="570">
<path d="M-22.2552 38.3592L384.76 -47.6304L486.88 435.698L79.8645 521.693L-22.2552 38.3592Z" fill="white"/>
</mask>
<g mask="url(#mask55_352_2)">
<path d="M165.333 246.776C152.88 244.458 140.766 241.068 128.911 236.891C123.026 234.672 117.234 232.099 111.318 230.057C105.38 228 99.2603 226.49 93.1041 225.599C86.9218 224.714 80.8228 224.38 74.6145 224.443C68.4218 224.479 62.0833 224.901 55.6614 224.396C42.8749 223.307 30.2655 219.656 19.2864 213.281L19.4583 212.859C31.5312 216.5 43.703 218.875 55.9843 219.484C68.0728 220.229 81.3228 219.234 93.6197 223.135C99.7551 224.839 105.703 226.917 111.755 228.635C117.807 230.359 123.99 231.651 130.073 233.234C142.151 236.729 153.99 241 165.463 246.328L165.333 246.776Z" fill="#C2DCD2"/>
</g>
</g>
</g>
<mask id="mask56_352_2" style="mask-type:luminance" maskUnits="userSpaceOnUse" x="52" y="153" width="220" height="175">
<path d="M52 153.333H272V328H52V153.333Z" fill="white"/>
</mask>
<g mask="url(#mask56_352_2)">
<mask id="mask57_352_2" style="mask-type:luminance" maskUnits="userSpaceOnUse" x="-23" y="-48" width="510" height="570">
<path d="M-22.2552 38.3597L384.76 -47.6299L486.88 435.698L79.8645 521.693L-22.2552 38.3597Z" fill="white"/>
</mask>
<g mask="url(#mask57_352_2)">
<mask id="mask58_352_2" style="mask-type:luminance" maskUnits="userSpaceOnUse" x="-23" y="-48" width="510" height="570">
<path d="M-22.2552 38.3597L384.76 -47.6299L486.88 435.698L79.8645 521.693L-22.2552 38.3597Z" fill="white"/>
</mask>
<g mask="url(#mask58_352_2)">
<path d="M52.2812 326.23C65.0677 327.214 77.5104 323.881 89.0469 318.886C100.703 314.032 111.516 307.25 123.021 301.485C134.521 295.782 146.76 290.964 159.599 289.063C165.974 288.235 172.37 287.823 178.583 286.568C184.729 285.396 190.948 283.011 194.599 278.266C198.391 273.469 198.495 267.167 197.505 261.079C196.594 254.938 194.651 248.625 194.938 241.698C195.057 238.25 195.974 234.667 197.573 231.589C199.141 228.474 201.182 225.761 203.297 223.235C207.552 218.266 212 213.792 216.359 209.063C234.042 190.521 251.953 172.209 270.479 154.563L270.807 154.881C254.349 174.594 237.271 193.594 219.974 212.402C215.661 217.073 211.12 221.73 206.943 226.37C202.807 231.016 199.521 236.037 199.281 241.943C198.891 247.865 200.411 254.11 201.141 260.605C201.495 263.86 201.63 267.277 200.979 270.652C200.349 274.032 198.807 277.282 196.557 279.855C191.958 285.193 185.115 286.969 178.885 288.157C172.51 289.282 166.078 289.521 159.839 290.652C147.245 292.652 135.865 298.74 124.807 304.865C113.693 311.011 102.51 317.516 90.3646 322.157C78.3438 326.782 64.9219 329.396 52.2188 326.704L52.2812 326.23Z" fill="#C2DCD2"/>
</g>
</g>
</g>
</svg>
