<svg width="500" height="500" viewBox="0 0 500 500" fill="none" xmlns="http://www.w3.org/2000/svg">
<mask id="mask0_352_260" style="mask-type:luminance" maskUnits="userSpaceOnUse" x="25" y="25" width="457" height="427">
<path d="M25.3334 25.3335H481.333V452H25.3334V25.3335Z" fill="white"/>
</mask>
<g mask="url(#mask0_352_260)">
<mask id="mask1_352_260" style="mask-type:luminance" maskUnits="userSpaceOnUse" x="-20" y="-56" width="513" height="637">
<path d="M81.8333 -55.2446L492.25 18.5366L391.219 580.526L-19.2031 506.745L81.8333 -55.2446Z" fill="white"/>
</mask>
<g mask="url(#mask1_352_260)">
<mask id="mask2_352_260" style="mask-type:luminance" maskUnits="userSpaceOnUse" x="-20" y="-56" width="513" height="637">
<path d="M81.8333 -55.2446L492.25 18.5366L391.219 580.526L-19.2031 506.745L81.8333 -55.2446Z" fill="white"/>
</mask>
<g mask="url(#mask2_352_260)">
<path d="M25.8854 450.531C41 429.052 56.8125 408.125 72.7708 387.344C89.1302 366.979 104.042 345.208 124.031 327.125C144.307 309.422 167.839 297.531 189.229 282.443C211.052 267.974 232.083 252.307 252.839 236.344C294.255 204.229 335.484 172.042 376.443 139.443C396.911 123.104 418.109 107.693 436.823 89.8491C455.516 72.146 472.141 51.5106 480.245 26.4585L481.109 26.6877C478.286 39.5627 473.26 52.0731 466.349 63.4533C459.333 74.7814 451.031 85.2658 441.875 94.87C423.385 114.052 402.76 130.474 382.474 147.016C341.406 179.672 299.266 211.011 255.76 240.37C234.094 255.162 212.354 269.787 191.031 285.037C180.307 292.557 169.63 300.193 159.099 307.964C148.552 315.698 138.312 323.708 129.13 332.656C119.76 341.438 111.641 351.479 103.224 361.432L78.1927 391.703C61.3437 411.797 44.3125 431.703 26.5781 451.094L25.8854 450.537" fill="#C2DCD2"/>
</g>
</g>
</g>
<mask id="mask3_352_260" style="mask-type:luminance" maskUnits="userSpaceOnUse" x="38" y="317" width="22" height="89">
<path d="M38.6666 317.333H60V405.333H38.6666V317.333Z" fill="white"/>
</mask>
<g mask="url(#mask3_352_260)">
<mask id="mask4_352_260" style="mask-type:luminance" maskUnits="userSpaceOnUse" x="-20" y="-56" width="513" height="637">
<path d="M81.8333 -55.2446L492.25 18.5366L391.219 580.526L-19.2031 506.745L81.8333 -55.2446Z" fill="white"/>
</mask>
<g mask="url(#mask4_352_260)">
<mask id="mask5_352_260" style="mask-type:luminance" maskUnits="userSpaceOnUse" x="-20" y="-56" width="513" height="637">
<path d="M81.8333 -55.2446L492.25 18.5366L391.219 580.526L-19.2031 506.745L81.8333 -55.2446Z" fill="white"/>
</mask>
<g mask="url(#mask5_352_260)">
<path d="M40.8438 318.188C45.4011 324.75 47.8073 331.812 48.6459 339.182C48.8438 342.896 48.1771 346.813 48.6667 350.51C49.0886 354.193 50.4063 357.672 51.9167 361.12C55.224 367.995 57.2292 375.094 58.7761 382.333C59.9167 389.646 60.3802 397.089 59.0469 404.927L58.1511 405.089C53.7865 398.464 51.2188 391.474 49.2969 384.312C47.8177 377.083 46.7917 369.755 47.0781 362.161C47.0729 358.375 46.8802 354.63 45.7813 351.104C44.7292 347.531 42.5469 344.219 41.2292 340.729C39.0365 333.661 38.3906 326.224 39.9479 318.359L40.8438 318.188Z" fill="#C2DCD2"/>
</g>
</g>
</g>
<mask id="mask6_352_260" style="mask-type:luminance" maskUnits="userSpaceOnUse" x="104" y="210" width="11" height="133">
<path d="M104 210.667H114.667V342.667H104V210.667Z" fill="white"/>
</mask>
<g mask="url(#mask6_352_260)">
<mask id="mask7_352_260" style="mask-type:luminance" maskUnits="userSpaceOnUse" x="-20" y="-56" width="513" height="637">
<path d="M81.8333 -55.2451L492.25 18.5361L391.219 580.526L-19.2031 506.745L81.8333 -55.2451Z" fill="white"/>
</mask>
<g mask="url(#mask7_352_260)">
<mask id="mask8_352_260" style="mask-type:luminance" maskUnits="userSpaceOnUse" x="-20" y="-56" width="513" height="637">
<path d="M81.8333 -55.2451L492.25 18.5361L391.219 580.526L-19.2031 506.745L81.8333 -55.2451Z" fill="white"/>
</mask>
<g mask="url(#mask8_352_260)">
<path d="M112.651 211.468C114.505 222.619 114.448 233.359 113.099 244.083C112.25 249.416 110.531 254.765 110.062 260.166C109.599 265.557 110.068 270.989 110.859 276.396C112.672 287.182 113.49 297.89 114.156 308.619C114.38 319.406 114.286 330.177 112.651 341.276L111.766 341.401C107.583 330.953 105.568 320.093 104.495 309.192C103.891 298.297 104.068 287.286 105.885 276.396C106.687 270.916 107.333 265.51 107.156 260.078C107.016 254.64 105.812 249.114 105.568 243.635C105.484 232.687 107.365 221.807 111.766 211.38L112.651 211.468Z" fill="#C2DCD2"/>
</g>
</g>
</g>
<mask id="mask9_352_260" style="mask-type:luminance" maskUnits="userSpaceOnUse" x="121" y="204" width="11" height="126">
<path d="M121.333 204H132V329.333H121.333V204Z" fill="white"/>
</mask>
<g mask="url(#mask9_352_260)">
<mask id="mask10_352_260" style="mask-type:luminance" maskUnits="userSpaceOnUse" x="-20" y="-56" width="513" height="637">
<path d="M81.8333 -55.2446L492.25 18.5366L391.219 580.526L-19.2031 506.745L81.8333 -55.2446Z" fill="white"/>
</mask>
<g mask="url(#mask10_352_260)">
<mask id="mask11_352_260" style="mask-type:luminance" maskUnits="userSpaceOnUse" x="-20" y="-56" width="513" height="637">
<path d="M81.8333 -55.2446L492.25 18.5366L391.219 580.526L-19.2031 506.745L81.8333 -55.2446Z" fill="white"/>
</mask>
<g mask="url(#mask11_352_260)">
<path d="M125.849 328.433C123.188 317.964 122.615 307.683 123.526 297.422C124.167 292.276 125.698 287.141 125.984 281.959C126.359 276.834 125.776 271.683 124.938 266.516C122.99 256.25 122.245 245.979 121.818 235.698C121.865 225.422 122.385 215.099 124.667 204.615L125.578 204.558C129.13 214.688 130.703 225 131.51 235.344C131.854 245.683 131.604 256.099 129.922 266.479C129.172 271.646 128.604 276.802 128.932 281.99C129.198 287.151 130.609 292.354 131.078 297.552C131.594 307.933 130.344 318.271 126.786 328.453L125.849 328.433Z" fill="#C2DCD2"/>
</g>
</g>
</g>
<mask id="mask12_352_260" style="mask-type:luminance" maskUnits="userSpaceOnUse" x="234" y="160" width="12" height="88">
<path d="M234.667 160H245.333V248H234.667V160Z" fill="white"/>
</mask>
<g mask="url(#mask12_352_260)">
<mask id="mask13_352_260" style="mask-type:luminance" maskUnits="userSpaceOnUse" x="-20" y="-56" width="513" height="637">
<path d="M81.8333 -55.2446L492.25 18.5366L391.219 580.526L-19.2031 506.745L81.8333 -55.2446Z" fill="white"/>
</mask>
<g mask="url(#mask13_352_260)">
<mask id="mask14_352_260" style="mask-type:luminance" maskUnits="userSpaceOnUse" x="-20" y="-56" width="513" height="637">
<path d="M81.8333 -55.2446L492.25 18.5366L391.219 580.526L-19.2031 506.745L81.8333 -55.2446Z" fill="white"/>
</mask>
<g mask="url(#mask14_352_260)">
<path d="M237.198 247.349C234.635 239.922 234.156 232.74 235.188 225.599C235.901 222.052 237.505 218.511 237.906 214.907C238.375 211.318 237.87 207.693 237.141 204.099C235.448 196.87 234.938 189.703 234.813 182.547C235.135 175.354 235.99 168.188 238.609 160.865L239.516 160.808C242.745 167.917 243.974 175.136 244.505 182.412C244.573 189.672 244.047 196.974 242.109 204.162C241.286 207.761 240.635 211.365 240.844 215.006C241.026 218.61 242.344 222.308 242.734 225.953C243.125 233.235 241.786 240.453 238.12 247.412L237.198 247.349Z" fill="#C2DCD2"/>
</g>
</g>
</g>
<mask id="mask15_352_260" style="mask-type:luminance" maskUnits="userSpaceOnUse" x="288" y="137" width="14" height="73">
<path d="M288 137.333H301.333V209.333H288V137.333Z" fill="white"/>
</mask>
<g mask="url(#mask15_352_260)">
<mask id="mask16_352_260" style="mask-type:luminance" maskUnits="userSpaceOnUse" x="-20" y="-56" width="513" height="637">
<path d="M81.8333 -55.2446L492.25 18.5366L391.219 580.526L-19.2031 506.745L81.8333 -55.2446Z" fill="white"/>
</mask>
<g mask="url(#mask16_352_260)">
<mask id="mask17_352_260" style="mask-type:luminance" maskUnits="userSpaceOnUse" x="-20" y="-56" width="513" height="637">
<path d="M81.8333 -55.2446L492.25 18.5366L391.219 580.526L-19.2031 506.745L81.8333 -55.2446Z" fill="white"/>
</mask>
<g mask="url(#mask17_352_260)">
<path d="M299.594 138.359C301.625 144.745 301.615 150.589 300.125 156.302C299.182 159.135 297.391 161.875 296.755 164.792C296.099 167.667 296.391 170.672 296.927 173.693C298.229 179.698 298.37 185.531 298.182 191.37C297.562 197.214 296.448 203 293.578 208.943L292.672 208.958C289.703 203.047 288.724 197.031 288.516 191.01C288.76 185.021 289.646 179.052 291.953 173.271C293.021 170.359 293.865 167.448 293.818 164.474C293.891 161.495 292.797 158.344 292.625 155.312C292.729 149.276 294.573 143.438 298.729 138.203L299.594 138.359Z" fill="#C2DCD2"/>
</g>
</g>
</g>
<mask id="mask18_352_260" style="mask-type:luminance" maskUnits="userSpaceOnUse" x="338" y="120" width="13" height="48">
<path d="M338.667 120H350.667V168H338.667V120Z" fill="white"/>
</mask>
<g mask="url(#mask18_352_260)">
<mask id="mask19_352_260" style="mask-type:luminance" maskUnits="userSpaceOnUse" x="-20" y="-56" width="513" height="637">
<path d="M81.8333 -55.2446L492.25 18.5366L391.219 580.526L-19.2031 506.745L81.8333 -55.2446Z" fill="white"/>
</mask>
<g mask="url(#mask19_352_260)">
<mask id="mask20_352_260" style="mask-type:luminance" maskUnits="userSpaceOnUse" x="-20" y="-56" width="513" height="637">
<path d="M81.8333 -55.2446L492.25 18.5366L391.219 580.526L-19.2031 506.745L81.8333 -55.2446Z" fill="white"/>
</mask>
<g mask="url(#mask20_352_260)">
<path d="M346.844 120.307C349.677 124.417 350.297 128.365 349.281 132.214C348.62 134.115 346.99 135.948 346.573 137.896C346.083 139.792 346.521 141.781 347.167 143.771C348.682 147.792 348.917 151.729 348.687 155.625C347.99 159.505 346.656 163.302 343.432 166.979L342.536 166.927C339.885 162.802 339.125 158.844 338.995 154.927C339.333 151.052 340.099 147.193 342.219 143.427C343.141 141.536 343.839 139.641 343.651 137.656C343.51 135.682 342.177 133.641 341.776 131.661C341.328 127.719 342.526 123.901 345.927 120.219L346.844 120.307Z" fill="#C2DCD2"/>
</g>
</g>
</g>
<mask id="mask21_352_260" style="mask-type:luminance" maskUnits="userSpaceOnUse" x="429" y="61" width="11" height="33">
<path d="M429.333 61.3335H440V93.3335H429.333V61.3335Z" fill="white"/>
</mask>
<g mask="url(#mask21_352_260)">
<mask id="mask22_352_260" style="mask-type:luminance" maskUnits="userSpaceOnUse" x="-20" y="-56" width="513" height="637">
<path d="M81.8333 -55.2446L492.25 18.5366L391.219 580.526L-19.2031 506.745L81.8333 -55.2446Z" fill="white"/>
</mask>
<g mask="url(#mask22_352_260)">
<mask id="mask23_352_260" style="mask-type:luminance" maskUnits="userSpaceOnUse" x="-20" y="-56" width="513" height="637">
<path d="M81.8333 -55.2446L492.25 18.5366L391.219 580.526L-19.2031 506.745L81.8333 -55.2446Z" fill="white"/>
</mask>
<g mask="url(#mask23_352_260)">
<path d="M435.526 92.0677C432.286 89.6094 431.276 87.1927 431.875 84.7031C432.385 83.4635 433.771 82.1615 433.99 80.9375C434.297 79.6563 433.641 78.4583 432.813 77.2604C430.901 74.8646 430.255 72.4375 430.115 69.9948C430.417 67.526 431.375 64.9948 434.141 62.2448L435.057 62.1562C438.083 64.3958 439.266 66.8438 439.792 69.3177C439.88 71.8594 439.495 74.4219 437.792 77.0417C437.057 78.3125 436.542 79.5938 436.932 80.8177C437.286 82.0677 438.797 83.2812 439.443 84.5156C440.26 87.0052 439.474 89.5677 436.453 92.0938L435.526 92.0677Z" fill="#C2DCD2"/>
</g>
</g>
</g>
<mask id="mask24_352_260" style="mask-type:luminance" maskUnits="userSpaceOnUse" x="389" y="128" width="65" height="11">
<path d="M389.333 128H453.333V138.667H389.333V128Z" fill="white"/>
</mask>
<g mask="url(#mask24_352_260)">
<mask id="mask25_352_260" style="mask-type:luminance" maskUnits="userSpaceOnUse" x="-20" y="-56" width="513" height="637">
<path d="M81.8333 -55.2446L492.25 18.5366L391.219 580.526L-19.2031 506.745L81.8333 -55.2446Z" fill="white"/>
</mask>
<g mask="url(#mask25_352_260)">
<mask id="mask26_352_260" style="mask-type:luminance" maskUnits="userSpaceOnUse" x="-20" y="-56" width="513" height="637">
<path d="M81.8333 -55.2446L492.25 18.5366L391.219 580.526L-19.2031 506.745L81.8333 -55.2446Z" fill="white"/>
</mask>
<g mask="url(#mask26_352_260)">
<path d="M452.922 137.719C446.891 138.766 442.182 138.714 437.177 137.417C434.734 136.578 432.219 134.901 429.615 134.542C426.99 134.099 424.339 134.636 421.703 135.427C416.469 137.261 411.234 137.943 405.807 138.011C400.432 137.625 394.839 136.433 389.807 132.938L389.932 132.026C395.469 129.698 400.51 128.766 405.74 128.339C410.974 128.339 416.328 128.657 421.703 130.443C424.37 131.219 427.036 131.834 429.714 131.599C432.417 131.401 435.208 130.141 438.036 129.891C443.599 129.802 449.339 131.985 453.224 136.875L452.922 137.719Z" fill="#C2DCD2"/>
</g>
</g>
</g>
<mask id="mask27_352_260" style="mask-type:luminance" maskUnits="userSpaceOnUse" x="370" y="146" width="77" height="17">
<path d="M370.667 146.667H446.667V162.667H370.667V146.667Z" fill="white"/>
</mask>
<g mask="url(#mask27_352_260)">
<mask id="mask28_352_260" style="mask-type:luminance" maskUnits="userSpaceOnUse" x="-20" y="-56" width="513" height="637">
<path d="M81.8333 -55.2451L492.25 18.5361L391.219 580.526L-19.2031 506.745L81.8333 -55.2451Z" fill="white"/>
</mask>
<g mask="url(#mask28_352_260)">
<mask id="mask29_352_260" style="mask-type:luminance" maskUnits="userSpaceOnUse" x="-20" y="-56" width="513" height="637">
<path d="M81.8333 -55.2451L492.25 18.5361L391.219 580.526L-19.2031 506.745L81.8333 -55.2451Z" fill="white"/>
</mask>
<g mask="url(#mask29_352_260)">
<path d="M372.109 149.088C378.802 147.364 384.885 147.635 390.781 149.344C393.698 150.375 396.495 152.281 399.51 152.969C402.516 153.724 405.651 153.531 408.76 153.083C415.031 151.901 421.089 151.875 427.156 152.094C433.187 152.781 439.219 153.969 445.417 156.818L445.427 157.724C439.266 160.729 432.969 161.656 426.703 161.781C420.458 161.453 414.208 160.479 408.234 158C405.224 156.88 402.219 155.943 399.13 155.896C396.016 155.766 392.74 156.729 389.552 156.802C383.297 156.474 377.255 154.37 371.917 149.958L372.109 149.088Z" fill="#C2DCD2"/>
</g>
</g>
</g>
<mask id="mask30_352_260" style="mask-type:luminance" maskUnits="userSpaceOnUse" x="256" y="234" width="156" height="22">
<path d="M256 234.667H412V256H256V234.667Z" fill="white"/>
</mask>
<g mask="url(#mask30_352_260)">
<mask id="mask31_352_260" style="mask-type:luminance" maskUnits="userSpaceOnUse" x="-20" y="-56" width="513" height="637">
<path d="M81.8333 -55.2451L492.25 18.5361L391.219 580.526L-19.2031 506.745L81.8333 -55.2451Z" fill="white"/>
</mask>
<g mask="url(#mask31_352_260)">
<mask id="mask32_352_260" style="mask-type:luminance" maskUnits="userSpaceOnUse" x="-20" y="-56" width="513" height="637">
<path d="M81.8333 -55.2451L492.25 18.5361L391.219 580.526L-19.2031 506.745L81.8333 -55.2451Z" fill="white"/>
</mask>
<g mask="url(#mask32_352_260)">
<path d="M256.646 236.422C269.792 235.573 282.802 236.036 295.714 236.989C308.698 237.588 321.474 240.172 334.25 242.765C347.057 245.317 359.984 246.234 373 246.442C376.25 246.854 379.604 245.609 382.828 245.765C386.036 245.797 389.229 245.427 392.333 245.625C398.583 245.995 404.552 247.104 411.411 248.656L411.609 249.562C405.792 253.817 398.651 255.422 391.964 255.338C388.609 255.307 385.333 254.468 382.083 253.922C378.807 253.479 375.729 251.552 372.526 251.297C359.734 248.859 346.849 247.078 333.812 246.979C320.807 246.911 307.771 246.802 294.938 244.745C282.042 243.047 269.24 240.807 256.562 237.312L256.646 236.422Z" fill="#C2DCD2"/>
</g>
</g>
</g>
<mask id="mask33_352_260" style="mask-type:luminance" maskUnits="userSpaceOnUse" x="185" y="284" width="209" height="31">
<path d="M185.333 284H393.333V314.667H185.333V284Z" fill="white"/>
</mask>
<g mask="url(#mask33_352_260)">
<mask id="mask34_352_260" style="mask-type:luminance" maskUnits="userSpaceOnUse" x="-20" y="-56" width="513" height="637">
<path d="M81.8333 -55.2446L492.25 18.5366L391.219 580.526L-19.2031 506.745L81.8333 -55.2446Z" fill="white"/>
</mask>
<g mask="url(#mask34_352_260)">
<mask id="mask35_352_260" style="mask-type:luminance" maskUnits="userSpaceOnUse" x="-20" y="-56" width="513" height="637">
<path d="M81.8333 -55.2446L492.25 18.5366L391.219 580.526L-19.2031 506.745L81.8333 -55.2446Z" fill="white"/>
</mask>
<g mask="url(#mask35_352_260)">
<path d="M186.734 285.058C204.542 286.922 221.635 290.141 238.698 294.141C247.156 296.459 255.563 299.271 264.224 300.865C272.833 302.485 281.641 303.052 290.464 303.125C308.063 303.12 325.5 303.651 342.958 303.802L369.219 304.808L382.401 305.516L384.042 305.625L384.865 305.672C385.297 305.677 385.927 305.756 386.365 305.943C388.193 306.771 388.76 308.026 389.339 308.677C389.797 309.302 390.594 309.698 390.818 309.625C390.87 309.563 391.052 310.136 390.896 309.604C390.813 309.448 390.656 309.349 390.594 309.297C390.594 309.297 390.771 308.933 390.62 309.157L389.703 309.214C389.479 308.849 390.156 307.917 390.734 308.094C391.203 308.104 391.531 308.276 391.891 308.49C392.172 308.714 392.552 309.042 392.656 309.672C392.823 310.344 392.307 311.011 392.005 311.25C390.229 312.485 388.589 311.604 387.448 310.933C384.995 308.938 385.594 309.839 382.656 310.104C378.25 310.724 373.849 311.589 369.443 311.99C360.604 312.99 351.729 313.417 342.844 313.485C325.115 313.177 307.354 311.683 289.932 308.078C281.219 306.401 272.537 304.74 263.766 303.771C255 302.813 246.089 302.615 237.255 301.563C219.703 298.881 202.547 293.813 186.51 285.912L186.734 285.058Z" fill="#C2DCD2"/>
</g>
</g>
</g>
<mask id="mask36_352_260" style="mask-type:luminance" maskUnits="userSpaceOnUse" x="164" y="300" width="219" height="27">
<path d="M164 300H382.667V326.667H164V300Z" fill="white"/>
</mask>
<g mask="url(#mask36_352_260)">
<mask id="mask37_352_260" style="mask-type:luminance" maskUnits="userSpaceOnUse" x="-20" y="-56" width="513" height="637">
<path d="M81.8333 -55.2446L492.25 18.5366L391.219 580.526L-19.2031 506.745L81.8333 -55.2446Z" fill="white"/>
</mask>
<g mask="url(#mask37_352_260)">
<mask id="mask38_352_260" style="mask-type:luminance" maskUnits="userSpaceOnUse" x="-20" y="-56" width="513" height="637">
<path d="M81.8333 -55.2446L492.25 18.5366L391.219 580.526L-19.2031 506.745L81.8333 -55.2446Z" fill="white"/>
</mask>
<g mask="url(#mask38_352_260)">
<path d="M165.12 300.359C183.448 302.786 201.141 305.854 218.917 309.484C227.734 311.578 236.552 314.104 245.578 315.469C254.615 316.771 263.729 317.005 272.891 316.844C291.135 316.234 309.276 316.245 327.479 316.307C345.667 316.833 363.927 317.781 382.214 320.411L382.219 321.354C363.995 324.422 345.719 325.792 327.401 325.995C309.104 325.812 290.708 324.812 272.536 321.792C263.448 320.38 254.391 319.036 245.271 318.406C240.688 318.016 236.094 317.88 231.495 317.776L217.688 316.948C199.417 314.677 181.385 309.625 164.865 301.219L165.12 300.359Z" fill="#C2DCD2"/>
</g>
</g>
</g>
<mask id="mask39_352_260" style="mask-type:luminance" maskUnits="userSpaceOnUse" x="100" y="358" width="234" height="36">
<path d="M100 358.667H333.333V393.333H100V358.667Z" fill="white"/>
</mask>
<g mask="url(#mask39_352_260)">
<mask id="mask40_352_260" style="mask-type:luminance" maskUnits="userSpaceOnUse" x="-20" y="-56" width="513" height="637">
<path d="M81.8333 -55.2451L492.25 18.5361L391.219 580.526L-19.2031 506.745L81.8333 -55.2451Z" fill="white"/>
</mask>
<g mask="url(#mask40_352_260)">
<mask id="mask41_352_260" style="mask-type:luminance" maskUnits="userSpaceOnUse" x="-20" y="-56" width="513" height="637">
<path d="M81.8333 -55.2451L492.25 18.5361L391.219 580.526L-19.2031 506.745L81.8333 -55.2451Z" fill="white"/>
</mask>
<g mask="url(#mask41_352_260)">
<path d="M101.141 359.979C120.859 361.213 140.062 364.161 159.125 368.239C168.589 370.588 177.979 373.505 187.568 375.338C197.156 377.167 206.891 377.984 216.646 378.51C236.187 379.354 255.573 380.854 274.958 382.536C294.302 384.677 313.651 387 333.005 390.703L332.979 391.63C313.318 393.656 293.672 393.437 274.125 392.193C254.604 390.458 235.146 387.719 216.005 383.443C206.391 381.354 196.833 379.38 187.12 378.25C177.417 377.042 167.547 376.745 157.776 375.719C138.37 372.948 119.286 368.182 100.901 360.88L101.141 359.979Z" fill="#C2DCD2"/>
</g>
</g>
</g>
<mask id="mask42_352_260" style="mask-type:luminance" maskUnits="userSpaceOnUse" x="74" y="389" width="172" height="54">
<path d="M74.6666 389.333H245.333V442.667H74.6666V389.333Z" fill="white"/>
</mask>
<g mask="url(#mask42_352_260)">
<mask id="mask43_352_260" style="mask-type:luminance" maskUnits="userSpaceOnUse" x="-20" y="-56" width="513" height="637">
<path d="M81.8333 -55.2446L492.25 18.5366L391.219 580.526L-19.2031 506.745L81.8333 -55.2446Z" fill="white"/>
</mask>
<g mask="url(#mask43_352_260)">
<mask id="mask44_352_260" style="mask-type:luminance" maskUnits="userSpaceOnUse" x="-20" y="-56" width="513" height="637">
<path d="M81.8333 -55.2446L492.25 18.5366L391.219 580.526L-19.2031 506.745L81.8333 -55.2446Z" fill="white"/>
</mask>
<g mask="url(#mask44_352_260)">
<path d="M244.026 441.464C229.094 440.292 214.818 437.005 200.979 432.172C194.141 429.464 187.49 426.109 180.599 423.708C173.688 421.281 166.495 419.729 159.26 418.427C144.693 415.995 130.547 412.26 116.49 408.182C102.557 403.656 88.8594 398.38 75.6406 391.458L75.901 390.609C90.7604 392.016 105.099 395.104 119.245 398.901C133.234 403.115 147.156 407.74 160.667 413.63C167.474 416.479 174.323 419.125 181.443 420.865C188.547 422.651 195.948 423.438 203.141 424.917C217.38 428.406 231.151 433.448 244.286 440.604L244.026 441.464Z" fill="#C2DCD2"/>
</g>
</g>
</g>
<mask id="mask45_352_260" style="mask-type:luminance" maskUnits="userSpaceOnUse" x="29" y="445" width="109" height="21">
<path d="M29.3334 445.333H137.333V465.333H29.3334V445.333Z" fill="white"/>
</mask>
<g mask="url(#mask45_352_260)">
<mask id="mask46_352_260" style="mask-type:luminance" maskUnits="userSpaceOnUse" x="-20" y="-56" width="513" height="637">
<path d="M81.8333 -55.2446L492.25 18.5366L391.219 580.526L-19.2031 506.745L81.8333 -55.2446Z" fill="white"/>
</mask>
<g mask="url(#mask46_352_260)">
<mask id="mask47_352_260" style="mask-type:luminance" maskUnits="userSpaceOnUse" x="-20" y="-56" width="513" height="637">
<path d="M81.8333 -55.2446L492.25 18.5366L391.219 580.526L-19.2031 506.745L81.8333 -55.2446Z" fill="white"/>
</mask>
<g mask="url(#mask47_352_260)">
<path d="M30.1927 449.657C38.2136 443.954 49.9844 444.48 57.9636 449.052C62.0469 451.412 65.7136 454.308 70 455.547C74.25 456.959 78.8334 456.959 83.1563 456.761C91.8125 456.589 100.453 455.25 109.693 455.433C118.76 455.724 129.068 457.401 136.516 463.683L136.156 464.521C126.865 463.61 118.682 464.375 109.818 464.938C101.094 465.355 91.6302 465.417 82.3646 462.969C77.7344 461.667 73.5105 459.49 69.1667 458.177C64.8855 456.688 60.1667 456.271 55.698 455.646C51.25 455.094 47.3646 453.636 43.3438 452.74C39.3334 451.771 35.2032 451.276 30.4271 450.563L30.1927 449.657Z" fill="#C2DCD2"/>
</g>
</g>
</g>
</svg>
