<svg width="446" height="478" viewBox="0 0 446 478" fill="none" xmlns="http://www.w3.org/2000/svg">
<g clip-path="url(#clip0_362_3156)">
<mask id="mask0_362_3156" style="mask-type:luminance" maskUnits="userSpaceOnUse" x="25" y="24" width="404" height="411">
<path d="M75.9836 24.1743L428.202 73.6754L377.491 434.503L25.2727 385.002L75.9836 24.1743Z" fill="white"/>
</mask>
<g mask="url(#mask0_362_3156)">
<mask id="mask1_362_3156" style="mask-type:luminance" maskUnits="userSpaceOnUse" x="-16" y="-38" width="454" height="572">
<path d="M129.202 -37.8362L437.442 69.1126L292.61 533.413L-15.6343 426.464L129.202 -37.8362Z" fill="white"/>
</mask>
<g mask="url(#mask1_362_3156)">
<mask id="mask2_362_3156" style="mask-type:luminance" maskUnits="userSpaceOnUse" x="-16" y="-38" width="454" height="572">
<path d="M129.202 -37.8362L437.442 69.1126L292.61 533.413L-15.6343 426.464L129.202 -37.8362Z" fill="white"/>
</mask>
<g mask="url(#mask2_362_3156)">
<path d="M25.8737 383.82C40.1012 367.296 54.8022 351.315 69.5984 335.472C84.655 320.026 98.7603 303.234 116.35 290.111C134.115 277.34 153.704 269.839 172.02 259.401C190.596 249.534 208.702 238.568 226.631 227.321C262.439 204.658 298.11 181.913 333.621 158.79C351.373 147.195 369.579 136.463 386.154 123.404C402.696 110.462 417.99 94.8155 427.228 74.509L427.868 74.7967C424.158 85.3785 418.788 95.4128 412.097 104.287C405.332 113.105 397.673 121.07 389.459 128.199C372.898 142.414 355.015 154.063 337.38 165.849C301.777 189.008 265.503 210.936 228.41 231.043C209.916 241.2 191.386 251.208 173.103 261.79C163.926 266.986 154.772 272.284 145.714 277.713C136.648 283.109 127.787 288.772 119.631 295.342C111.35 301.751 103.884 309.362 96.2004 316.865L73.2682 339.748C57.8657 354.912 42.3447 369.897 26.3419 384.371L25.873 383.824" fill="#D07C19"/>
</g>
</g>
</g>
<mask id="mask3_362_3156" style="mask-type:luminance" maskUnits="userSpaceOnUse" x="41" y="272" width="28" height="78">
<path d="M51.5771 272.562L68.0551 274.878L57.596 349.299L41.118 346.983L51.5771 272.562Z" fill="white"/>
</mask>
<g mask="url(#mask3_362_3156)">
<mask id="mask4_362_3156" style="mask-type:luminance" maskUnits="userSpaceOnUse" x="-16" y="-38" width="454" height="572">
<path d="M129.202 -37.8367L437.442 69.1121L292.61 533.413L-15.6343 426.464L129.202 -37.8367Z" fill="white"/>
</mask>
<g mask="url(#mask4_362_3156)">
<mask id="mask5_362_3156" style="mask-type:luminance" maskUnits="userSpaceOnUse" x="-16" y="-38" width="454" height="572">
<path d="M129.202 -37.8367L437.442 69.1121L292.61 533.413L-15.6343 426.464L129.202 -37.8367Z" fill="white"/>
</mask>
<g mask="url(#mask5_362_3156)">
<path d="M53.1572 273.521C55.8973 279.566 56.9165 285.8 56.6883 292.123C56.3998 295.285 55.4193 298.525 55.358 301.706C55.2462 304.866 55.8505 307.951 56.6073 311.031C58.3448 317.204 59.0499 323.425 59.3843 329.715C59.3962 336.023 58.8696 342.368 56.9081 348.852L56.197 348.891C53.6131 342.815 52.4606 336.625 51.8273 330.36C51.5439 324.086 51.6224 317.777 52.7462 311.386C53.1922 308.184 53.4884 304.996 53.0587 301.895C52.6707 298.759 51.3788 295.721 50.7757 292.626C49.9221 286.411 50.3072 280.051 52.4448 273.569L53.1572 273.521Z" fill="#D07C19"/>
</g>
</g>
</g>
<mask id="mask6_362_3156" style="mask-type:luminance" maskUnits="userSpaceOnUse" x="99" y="189" width="24" height="114">
<path d="M114.719 189.448L122.958 190.606L107.269 302.237L99.0302 301.079L114.719 189.448Z" fill="white"/>
</mask>
<g mask="url(#mask6_362_3156)">
<mask id="mask7_362_3156" style="mask-type:luminance" maskUnits="userSpaceOnUse" x="-16" y="-38" width="454" height="572">
<path d="M129.202 -37.8362L437.442 69.1126L292.61 533.413L-15.6344 426.464L129.202 -37.8362Z" fill="white"/>
</mask>
<g mask="url(#mask7_362_3156)">
<mask id="mask8_362_3156" style="mask-type:luminance" maskUnits="userSpaceOnUse" x="-16" y="-38" width="454" height="572">
<path d="M129.202 -37.8362L437.442 69.1126L292.61 533.413L-15.6344 426.464L129.202 -37.8362Z" fill="white"/>
</mask>
<g mask="url(#mask8_362_3156)">
<path d="M121.306 191.065C121.413 200.697 120.092 209.773 117.775 218.696C116.486 223.114 114.522 227.451 113.518 231.968C112.52 236.476 112.236 241.121 112.205 245.779C112.323 255.098 111.682 264.242 110.922 273.388C109.813 282.535 108.46 291.633 105.878 300.842L105.179 300.852C103.19 291.562 102.924 282.159 103.391 272.824C104.219 263.544 105.665 254.252 108.363 245.239C109.634 240.693 110.775 236.191 111.284 231.577C111.822 226.964 111.549 222.16 112.011 217.5C113.248 208.232 115.994 199.235 120.632 190.894L121.306 191.065Z" fill="#D07C19"/>
</g>
</g>
</g>
<mask id="mask9_362_3156" style="mask-type:luminance" maskUnits="userSpaceOnUse" x="114" y="185" width="24" height="108">
<path d="M128.9 185.691L137.139 186.849L122.242 292.842L114.003 291.684L128.9 185.691Z" fill="white"/>
</mask>
<g mask="url(#mask9_362_3156)">
<mask id="mask10_362_3156" style="mask-type:luminance" maskUnits="userSpaceOnUse" x="-16" y="-38" width="454" height="572">
<path d="M129.202 -37.8372L437.442 69.1116L292.61 533.412L-15.6344 426.463L129.202 -37.8372Z" fill="white"/>
</mask>
<g mask="url(#mask10_362_3156)">
<mask id="mask11_362_3156" style="mask-type:luminance" maskUnits="userSpaceOnUse" x="-16" y="-38" width="454" height="572">
<path d="M129.202 -37.8372L437.442 69.1116L292.61 533.412L-15.6344 426.463L129.202 -37.8372Z" fill="white"/>
</mask>
<g mask="url(#mask11_362_3156)">
<path d="M117.598 291.412C116.787 282.27 117.566 273.513 119.49 264.935C120.596 260.653 122.389 256.476 123.227 252.124C124.125 247.831 124.287 243.411 124.253 238.951C123.969 230.058 124.614 221.291 125.506 212.55C126.764 203.865 128.393 195.191 131.401 186.573L132.112 186.623C133.652 195.576 133.641 204.468 133.035 213.303C132.072 222.083 130.641 230.865 128.108 239.461C126.914 243.749 125.863 248.048 125.5 252.471C125.092 256.865 125.563 261.418 125.308 265.865C124.472 274.699 122.278 283.307 118.32 291.532L117.598 291.412Z" fill="#D07C19"/>
</g>
</g>
</g>
<mask id="mask12_362_3156" style="mask-type:luminance" maskUnits="userSpaceOnUse" x="211" y="160" width="19" height="77">
<path d="M221.669 160.785L229.908 161.943L219.449 236.363L211.21 235.205L221.669 160.785Z" fill="white"/>
</mask>
<g mask="url(#mask12_362_3156)">
<mask id="mask13_362_3156" style="mask-type:luminance" maskUnits="userSpaceOnUse" x="-16" y="-38" width="454" height="572">
<path d="M129.202 -37.8362L437.442 69.1126L292.61 533.413L-15.6343 426.464L129.202 -37.8362Z" fill="white"/>
</mask>
<g mask="url(#mask13_362_3156)">
<mask id="mask14_362_3156" style="mask-type:luminance" maskUnits="userSpaceOnUse" x="-16" y="-38" width="454" height="572">
<path d="M129.202 -37.8362L437.442 69.1126L292.61 533.413L-15.6343 426.464L129.202 -37.8362Z" fill="white"/>
</mask>
<g mask="url(#mask14_362_3156)">
<path d="M213.242 234.929C212.146 228.37 212.629 222.244 214.275 216.317C215.247 213.395 216.907 210.574 217.645 207.57C218.434 204.586 218.475 201.465 218.339 198.347C217.89 192.05 218.348 185.934 219.102 179.868C220.206 173.82 221.718 167.852 224.612 161.944L225.318 161.994C226.968 168.357 227.059 174.595 226.605 180.806C225.794 186.953 224.52 193.071 222.169 198.939C221.106 201.894 220.174 204.871 219.903 207.972C219.615 211.04 220.193 214.311 220.062 217.436C219.498 223.636 217.606 229.596 213.947 235.082L213.242 234.929Z" fill="#D07C19"/>
</g>
</g>
</g>
<mask id="mask15_362_3156" style="mask-type:luminance" maskUnits="userSpaceOnUse" x="257" y="147" width="19" height="63">
<path d="M265.558 147.405L275.857 148.853L267.299 209.742L257.001 208.295L265.558 147.405Z" fill="white"/>
</mask>
<g mask="url(#mask15_362_3156)">
<mask id="mask16_362_3156" style="mask-type:luminance" maskUnits="userSpaceOnUse" x="-16" y="-38" width="454" height="572">
<path d="M129.202 -37.8362L437.442 69.1126L292.61 533.413L-15.6343 426.464L129.202 -37.8362Z" fill="white"/>
</mask>
<g mask="url(#mask16_362_3156)">
<mask id="mask17_362_3156" style="mask-type:luminance" maskUnits="userSpaceOnUse" x="-16" y="-38" width="454" height="572">
<path d="M129.202 -37.8362L437.442 69.1126L292.61 533.413L-15.6343 426.464L129.202 -37.8362Z" fill="white"/>
</mask>
<g mask="url(#mask17_362_3156)">
<path d="M274.391 149.532C275.201 155.152 274.499 160.093 272.669 164.763C271.604 167.057 269.895 169.179 269.057 171.577C268.209 173.937 268.077 176.51 268.132 179.123C268.424 184.343 267.839 189.291 267.001 194.209C265.827 199.083 264.279 203.856 261.356 208.57L260.654 208.485C259.063 203.163 259.022 197.97 259.577 192.855C260.478 187.817 261.871 182.865 264.34 178.226C265.511 175.88 266.509 173.509 266.826 170.989C267.236 168.478 266.766 165.694 266.994 163.112C267.792 158.018 269.91 153.281 273.742 149.306L274.391 149.532Z" fill="#D07C19"/>
</g>
</g>
</g>
<mask id="mask18_362_3156" style="mask-type:luminance" maskUnits="userSpaceOnUse" x="301" y="138" width="16" height="43">
<path d="M306.754 138.247L316.023 139.549L310.318 180.142L301.049 178.84L306.754 138.247Z" fill="white"/>
</mask>
<g mask="url(#mask18_362_3156)">
<mask id="mask19_362_3156" style="mask-type:luminance" maskUnits="userSpaceOnUse" x="-16" y="-38" width="454" height="572">
<path d="M129.202 -37.8367L437.442 69.1121L292.61 533.413L-15.6343 426.464L129.202 -37.8367Z" fill="white"/>
</mask>
<g mask="url(#mask19_362_3156)">
<mask id="mask20_362_3156" style="mask-type:luminance" maskUnits="userSpaceOnUse" x="-16" y="-38" width="454" height="572">
<path d="M129.202 -37.8367L437.442 69.1121L292.61 533.413L-15.6343 426.464L129.202 -37.8367Z" fill="white"/>
</mask>
<g mask="url(#mask20_362_3156)">
<path d="M313.033 139.394C314.733 143.177 314.743 146.583 313.501 149.728C312.764 151.264 311.287 152.637 310.733 154.239C310.13 155.789 310.231 157.519 310.494 159.272C311.187 162.837 310.9 166.192 310.26 169.462C309.259 172.668 307.778 175.734 304.851 178.494L304.165 178.352C302.608 174.576 302.491 171.146 302.856 167.82C303.578 164.579 304.628 161.399 306.713 158.444C307.65 156.945 308.414 155.418 308.505 153.719C308.631 152.035 307.844 150.163 307.769 148.446C307.892 145.063 309.271 141.965 312.336 139.22L313.033 139.394Z" fill="#D07C19"/>
</g>
</g>
</g>
<mask id="mask21_362_3156" style="mask-type:luminance" maskUnits="userSpaceOnUse" x="379" y="98" width="13" height="29">
<path d="M383.758 98.4751L391.997 99.633L388.194 126.695L379.955 125.537L383.758 98.4751Z" fill="white"/>
</mask>
<g mask="url(#mask21_362_3156)">
<mask id="mask22_362_3156" style="mask-type:luminance" maskUnits="userSpaceOnUse" x="-16" y="-38" width="454" height="572">
<path d="M129.202 -37.8367L437.442 69.1121L292.61 533.413L-15.6343 426.464L129.202 -37.8367Z" fill="white"/>
</mask>
<g mask="url(#mask22_362_3156)">
<mask id="mask23_362_3156" style="mask-type:luminance" maskUnits="userSpaceOnUse" x="-16" y="-38" width="454" height="572">
<path d="M129.202 -37.8367L437.442 69.1121L292.61 533.413L-15.6343 426.464L129.202 -37.8367Z" fill="white"/>
</mask>
<g mask="url(#mask23_362_3156)">
<path d="M384.889 125.139C382.678 122.708 382.185 120.555 382.944 118.515C383.485 117.522 384.71 116.571 385.025 115.56C385.414 114.509 385.05 113.425 384.552 112.322C383.361 110.089 383.15 107.966 383.332 105.885C383.859 103.83 384.9 101.793 387.363 99.7678L388.082 99.7924C390.153 102.015 390.775 104.213 390.887 106.363C390.654 108.522 390.051 110.647 388.424 112.678C387.706 113.673 387.156 114.7 387.312 115.778C387.437 116.873 388.459 118.064 388.811 119.178C389.147 121.372 388.235 123.453 385.601 125.262L384.889 125.139Z" fill="#D07C19"/>
</g>
</g>
</g>
<mask id="mask24_362_3156" style="mask-type:luminance" maskUnits="userSpaceOnUse" x="343" y="150" width="52" height="17">
<path d="M344.938 150.512L394.372 157.46L393.105 166.48L343.67 159.533L344.938 150.512Z" fill="white"/>
</mask>
<g mask="url(#mask24_362_3156)">
<mask id="mask25_362_3156" style="mask-type:luminance" maskUnits="userSpaceOnUse" x="-16" y="-38" width="454" height="572">
<path d="M129.202 -37.8367L437.442 69.1121L292.61 533.413L-15.6343 426.464L129.202 -37.8367Z" fill="white"/>
</mask>
<g mask="url(#mask25_362_3156)">
<mask id="mask26_362_3156" style="mask-type:luminance" maskUnits="userSpaceOnUse" x="-16" y="-38" width="454" height="572">
<path d="M129.202 -37.8367L437.442 69.1121L292.61 533.413L-15.6343 426.464L129.202 -37.8367Z" fill="white"/>
</mask>
<g mask="url(#mask26_362_3156)">
<path d="M392.899 165.634C388.116 165.864 384.486 165.309 380.774 163.669C378.987 162.695 377.243 161.003 375.274 160.417C373.299 159.757 371.188 159.923 369.058 160.307C364.797 161.289 360.673 161.298 356.473 160.766C352.367 159.856 348.188 158.241 344.717 154.739L344.922 153.982C349.475 152.614 353.48 152.373 357.57 152.579C361.613 153.147 365.711 153.997 369.651 156.092C371.618 157.037 373.605 157.847 375.7 157.939C377.812 158.065 380.118 157.302 382.332 157.398C386.639 157.927 390.813 160.395 393.233 164.953L392.899 165.634Z" fill="#D07C19"/>
</g>
</g>
</g>
<mask id="mask27_362_3156" style="mask-type:luminance" maskUnits="userSpaceOnUse" x="326" y="164" width="62" height="23">
<path d="M328.301 164.272L387.004 172.522L385.103 186.053L326.4 177.803L328.301 164.272Z" fill="white"/>
</mask>
<g mask="url(#mask27_362_3156)">
<mask id="mask28_362_3156" style="mask-type:luminance" maskUnits="userSpaceOnUse" x="-16" y="-38" width="454" height="572">
<path d="M129.202 -37.8367L437.442 69.1121L292.61 533.413L-15.6343 426.464L129.202 -37.8367Z" fill="white"/>
</mask>
<g mask="url(#mask28_362_3156)">
<mask id="mask29_362_3156" style="mask-type:luminance" maskUnits="userSpaceOnUse" x="-16" y="-38" width="454" height="572">
<path d="M129.202 -37.8367L437.442 69.1121L292.61 533.413L-15.6343 426.464L129.202 -37.8367Z" fill="white"/>
</mask>
<g mask="url(#mask29_362_3156)">
<path d="M329.128 166.477C334.502 165.745 339.169 166.635 343.52 168.719C345.65 169.908 347.584 171.824 349.831 172.733C352.063 173.697 354.508 173.875 356.963 173.834C361.947 173.514 366.629 174.15 371.289 174.994C375.866 176.23 380.384 177.889 384.832 180.971L384.733 181.738C379.616 183.611 374.642 183.712 369.788 183.137C365.003 182.182 360.292 180.68 355.972 177.934C353.78 176.661 351.57 175.542 349.19 175.167C346.8 174.718 344.155 175.178 341.684 174.893C336.891 173.937 332.475 171.502 328.876 167.191L329.128 166.477Z" fill="#D07C19"/>
</g>
</g>
</g>
<mask id="mask30_362_3156" style="mask-type:luminance" maskUnits="userSpaceOnUse" x="226" y="226" width="124" height="36">
<path d="M229.273 226.245L349.768 243.18L347.233 261.221L226.737 244.286L229.273 226.245Z" fill="white"/>
</mask>
<g mask="url(#mask30_362_3156)">
<mask id="mask31_362_3156" style="mask-type:luminance" maskUnits="userSpaceOnUse" x="-16" y="-38" width="454" height="572">
<path d="M129.202 -37.8367L437.442 69.1121L292.61 533.413L-15.6343 426.464L129.202 -37.8367Z" fill="white"/>
</mask>
<g mask="url(#mask31_362_3156)">
<mask id="mask32_362_3156" style="mask-type:luminance" maskUnits="userSpaceOnUse" x="-16" y="-38" width="454" height="572">
<path d="M129.202 -37.8367L437.442 69.1121L292.61 533.413L-15.6343 426.464L129.202 -37.8367Z" fill="white"/>
</mask>
<g mask="url(#mask32_362_3156)">
<path d="M229.563 227.799C239.818 228.509 249.812 230.313 259.672 232.521C269.63 234.437 279.191 238.008 288.751 241.589C298.34 245.137 308.216 247.316 318.245 248.905C320.706 249.606 323.445 248.917 325.917 249.399C328.391 249.774 330.901 249.808 333.275 250.312C338.059 251.303 342.537 252.889 347.651 254.947L347.696 255.734C342.697 258.701 336.991 259.283 331.835 258.487C329.248 258.096 326.817 257.031 324.372 256.216C321.894 255.486 319.746 253.522 317.302 252.958C307.711 249.509 297.97 246.603 287.912 245.104C277.875 243.635 267.818 242.128 258.15 238.995C248.391 236.159 238.769 232.875 229.393 228.544L229.563 227.799Z" fill="#D07C19"/>
</g>
</g>
</g>
<mask id="mask33_362_3156" style="mask-type:luminance" maskUnits="userSpaceOnUse" x="165" y="260" width="165" height="49">
<path d="M168.826 260.295L329.487 282.874L325.842 308.809L165.181 286.229L168.826 260.295Z" fill="white"/>
</mask>
<g mask="url(#mask33_362_3156)">
<mask id="mask34_362_3156" style="mask-type:luminance" maskUnits="userSpaceOnUse" x="-16" y="-38" width="454" height="572">
<path d="M129.202 -37.8362L437.442 69.1126L292.61 533.413L-15.6343 426.464L129.202 -37.8362Z" fill="white"/>
</mask>
<g mask="url(#mask34_362_3156)">
<mask id="mask35_362_3156" style="mask-type:luminance" maskUnits="userSpaceOnUse" x="-16" y="-38" width="454" height="572">
<path d="M129.202 -37.8362L437.442 69.1126L292.61 533.413L-15.6343 426.464L129.202 -37.8362Z" fill="white"/>
</mask>
<g mask="url(#mask35_362_3156)">
<path d="M169.782 261.341C183.315 264.851 196.136 269.428 208.84 274.663C215.097 277.542 221.256 280.833 227.757 283.121C234.214 285.425 240.95 286.861 247.756 287.881C261.35 289.787 274.756 292.129 288.223 294.152L308.387 297.853L318.485 299.883L319.739 300.153L320.369 300.282C320.703 300.334 321.18 300.468 321.496 300.674C322.81 301.573 323.099 302.696 323.468 303.309C323.748 303.888 324.316 304.309 324.498 304.272C324.546 304.224 324.618 304.729 324.561 304.262C324.515 304.121 324.406 304.021 324.364 303.97C324.364 303.97 324.544 303.681 324.401 303.854L323.686 303.803C323.556 303.47 324.19 302.755 324.616 302.968C324.976 303.027 325.209 303.208 325.462 303.428C325.652 303.648 325.907 303.967 325.912 304.511C325.961 305.097 325.484 305.605 325.222 305.775C323.703 306.626 322.541 305.703 321.74 305.011C320.082 303.058 320.437 303.885 318.137 303.791C314.66 303.837 311.158 304.09 307.707 303.951C300.761 303.837 293.855 303.235 286.984 302.328C273.326 300.143 259.785 296.951 246.757 292.012C240.226 289.648 233.717 287.3 227.058 285.529C220.401 283.767 213.541 282.632 206.843 280.783C193.605 276.61 180.955 270.461 169.508 262.039L169.782 261.341Z" fill="#D07C19"/>
</g>
</g>
</g>
<mask id="mask36_362_3156" style="mask-type:luminance" maskUnits="userSpaceOnUse" x="147" y="271" width="173" height="47">
<path d="M150.446 271.51L319.346 295.247L316.176 317.799L147.276 294.061L150.446 271.51Z" fill="white"/>
</mask>
<g mask="url(#mask36_362_3156)">
<mask id="mask37_362_3156" style="mask-type:luminance" maskUnits="userSpaceOnUse" x="-16" y="-38" width="454" height="572">
<path d="M129.202 -37.8362L437.442 69.1126L292.61 533.413L-15.6344 426.464L129.202 -37.8362Z" fill="white"/>
</mask>
<g mask="url(#mask37_362_3156)">
<mask id="mask38_362_3156" style="mask-type:luminance" maskUnits="userSpaceOnUse" x="-16" y="-38" width="454" height="572">
<path d="M129.202 -37.8362L437.442 69.1126L292.61 533.413L-15.6344 426.464L129.202 -37.8362Z" fill="white"/>
</mask>
<g mask="url(#mask38_362_3156)">
<path d="M151.268 271.936C165.136 275.978 178.438 280.493 191.737 285.493C198.299 288.221 204.809 291.314 211.619 293.448C218.444 295.53 225.456 296.718 232.552 297.576C246.717 299.041 260.728 301.019 274.78 303.048C288.766 305.467 302.758 308.251 316.57 312.46L316.462 313.258C302.021 313.874 287.742 313.049 273.569 311.232C259.458 309.092 245.367 306.249 231.69 301.722C224.838 299.541 218.002 297.422 211.032 295.899C207.539 295.071 204.007 294.458 200.467 293.87L189.9 291.671C176.058 287.767 162.731 281.537 150.969 272.635L151.268 271.936Z" fill="#D07C19"/>
</g>
</g>
</g>
<mask id="mask39_362_3156" style="mask-type:luminance" maskUnits="userSpaceOnUse" x="89" y="314" width="186" height="55">
<path d="M94.0389 314.176L274.268 339.505L270.147 368.822L89.9186 343.493L94.0389 314.176Z" fill="white"/>
</mask>
<g mask="url(#mask39_362_3156)">
<mask id="mask40_362_3156" style="mask-type:luminance" maskUnits="userSpaceOnUse" x="-16" y="-38" width="454" height="572">
<path d="M129.202 -37.8367L437.442 69.1121L292.61 533.413L-15.6343 426.464L129.202 -37.8367Z" fill="white"/>
</mask>
<g mask="url(#mask40_362_3156)">
<mask id="mask41_362_3156" style="mask-type:luminance" maskUnits="userSpaceOnUse" x="-16" y="-38" width="454" height="572">
<path d="M129.202 -37.8367L437.442 69.1121L292.61 533.413L-15.6343 426.464L129.202 -37.8367Z" fill="white"/>
</mask>
<g mask="url(#mask41_362_3156)">
<path d="M94.7639 315.41C109.848 318.594 124.33 323.172 138.57 328.69C145.6 331.704 152.507 335.19 159.695 337.781C166.884 340.368 174.306 342.116 181.779 343.62C196.773 346.455 211.568 349.828 226.341 353.355C241.028 357.265 255.697 361.33 270.207 366.563L270.076 367.344C254.649 366.923 239.5 364.605 224.55 361.431C209.678 357.845 194.974 353.416 180.698 347.722C173.519 344.912 166.372 342.205 159.003 340.195C151.652 338.12 144.064 336.797 136.639 334.869C121.979 330.419 107.805 324.317 94.4718 316.146L94.7639 315.41Z" fill="#D07C19"/>
</g>
</g>
</g>
<mask id="mask42_362_3156" style="mask-type:luminance" maskUnits="userSpaceOnUse" x="64" y="337" width="139" height="64">
<path d="M70.8263 337.36L202.651 355.887L196.312 400.99L64.4875 382.464L70.8263 337.36Z" fill="white"/>
</mask>
<g mask="url(#mask42_362_3156)">
<mask id="mask43_362_3156" style="mask-type:luminance" maskUnits="userSpaceOnUse" x="-16" y="-38" width="454" height="572">
<path d="M129.202 -37.8362L437.442 69.1126L292.61 533.413L-15.6344 426.464L129.202 -37.8362Z" fill="white"/>
</mask>
<g mask="url(#mask43_362_3156)">
<mask id="mask44_362_3156" style="mask-type:luminance" maskUnits="userSpaceOnUse" x="-16" y="-38" width="454" height="572">
<path d="M129.202 -37.8362L437.442 69.1126L292.61 533.413L-15.6344 426.464L129.202 -37.8362Z" fill="white"/>
</mask>
<g mask="url(#mask44_362_3156)">
<path d="M195.445 399.832C184.051 397.22 173.414 392.891 163.3 387.301C158.339 384.268 153.601 380.71 148.564 377.931C143.514 375.128 138.143 373.035 132.709 371.148C121.746 367.51 111.264 362.816 100.89 357.841C90.6669 352.501 80.7136 346.553 71.326 339.264L71.6281 338.574C82.9385 341.376 93.6466 345.545 104.122 350.292C114.427 355.374 124.63 360.796 134.366 367.244C139.285 370.393 144.261 373.374 149.553 375.618C154.828 377.9 160.452 379.368 165.832 381.4C176.416 385.897 186.453 391.655 195.748 399.133L195.445 399.832Z" fill="#D07C19"/>
</g>
</g>
</g>
<mask id="mask45_362_3156" style="mask-type:luminance" maskUnits="userSpaceOnUse" x="26" y="379" width="87" height="30">
<path d="M29.1546 379.798L112.575 391.522L110.198 408.436L26.7776 396.712L29.1546 379.798Z" fill="white"/>
</mask>
<g mask="url(#mask45_362_3156)">
<mask id="mask46_362_3156" style="mask-type:luminance" maskUnits="userSpaceOnUse" x="-16" y="-38" width="454" height="572">
<path d="M129.202 -37.8362L437.442 69.1126L292.61 533.413L-15.6344 426.464L129.202 -37.8362Z" fill="white"/>
</mask>
<g mask="url(#mask46_362_3156)">
<mask id="mask47_362_3156" style="mask-type:luminance" maskUnits="userSpaceOnUse" x="-16" y="-38" width="454" height="572">
<path d="M129.202 -37.8362L437.442 69.1126L292.61 533.413L-15.6344 426.464L129.202 -37.8362Z" fill="white"/>
</mask>
<g mask="url(#mask47_362_3156)">
<path d="M29.3046 383.548C36.1778 379.595 45.2072 381.318 50.8269 386.051C53.7005 388.49 56.1885 391.337 59.352 392.851C62.467 394.506 66.0072 395.003 69.3698 395.305C76.0764 396.099 82.9096 395.905 90.0247 397.062C96.994 398.293 104.756 400.831 109.762 406.951L109.385 407.621C102.316 405.842 95.9054 405.601 88.9915 405.114C82.2035 404.52 74.8863 403.545 68.0204 400.469C64.5988 398.866 61.5949 396.566 58.3957 394.984C55.2659 393.26 51.6706 392.395 48.2932 391.382C44.9232 390.432 42.0954 388.777 39.0962 387.583C36.1136 386.328 32.9822 385.461 29.378 384.339L29.3046 383.548Z" fill="#D07C19"/>
</g>
</g>
</g>
</g>
<defs>
<clipPath id="clip0_362_3156">
<rect width="390" height="427" fill="white" transform="translate(59.4269) rotate(8)"/>
</clipPath>
</defs>
</svg>
