<svg width="36" height="35" viewBox="0 0 36 35" fill="none" xmlns="http://www.w3.org/2000/svg">
<g clip-path="url(#clip0_180_17)">
<path fill-rule="evenodd" clip-rule="evenodd" d="M19.1141 23.4211C18.7031 23.8307 18.1459 24.0608 17.565 24.0608C16.9841 24.0608 16.4269 23.8307 16.0159 23.4211L7.74704 15.1727C7.336 14.7624 7.10515 14.2059 7.10529 13.6256C7.10542 13.0454 7.33653 12.489 7.74778 12.0789C8.15902 11.6687 8.71671 11.4383 9.29815 11.4385C9.8796 11.4386 10.4372 11.6692 10.8482 12.0796L17.565 18.7821L24.2818 12.0796C24.6951 11.6809 25.2487 11.4602 25.8235 11.4649C26.3983 11.4696 26.9482 11.6994 27.3549 12.1048C27.7615 12.5102 27.9923 13.0587 27.9976 13.6323C28.0028 14.2058 27.7821 14.7585 27.383 15.1713L19.1141 23.4211Z" fill="#669940"/>
</g>
<defs>
<clipPath id="clip0_180_17">
<rect width="35.0746" height="35" fill="white" transform="translate(0.02771)"/>
</clipPath>
</defs>
</svg>
