<svg width="71" height="74" viewBox="0 0 71 74" fill="none" xmlns="http://www.w3.org/2000/svg">
<path d="M18.3032 24.6665H52.6938L50.6378 58.9686C50.5437 60.5343 49.8807 62.0037 48.7836 63.0778C47.6866 64.1518 46.2381 64.7498 44.7329 64.7499H26.267C24.7619 64.7498 23.3134 64.1518 22.2163 63.0778C21.1193 62.0037 20.4563 60.5343 20.3622 58.9686L18.3032 24.6665ZM56.2083 15.4165V21.5832H14.7917V15.4165H23.6667V12.3332C23.6667 10.6977 24.29 9.12915 25.3996 7.97268C26.5092 6.8162 28.0141 6.1665 29.5833 6.1665H41.4166C42.9858 6.1665 44.4908 6.8162 45.6004 7.97268C46.7099 9.12915 47.3333 10.6977 47.3333 12.3332V15.4165H56.2083ZM29.5833 15.4165H41.4166V12.3332H29.5833V15.4165Z" fill="#E88A1B"/>
</svg>
