<svg width="81" height="93" viewBox="0 0 81 93" fill="none" xmlns="http://www.w3.org/2000/svg">
<path d="M54 23.25H35.4375V38.75H3.375V58.125H10.125C10.125 61.2081 11.1917 64.165 13.0905 66.3451C14.9894 68.5252 17.5647 69.75 20.25 69.75C22.9353 69.75 25.5107 68.5252 27.4095 66.3451C29.3083 64.165 30.375 61.2081 30.375 58.125H50.625C50.625 61.2081 51.6917 64.165 53.5905 66.3451C55.4893 68.5252 58.0647 69.75 60.75 69.75C63.4353 69.75 66.0107 68.5252 67.9095 66.3451C69.8083 64.165 70.875 61.2081 70.875 58.125H77.625V46.5C77.625 42.1987 74.6212 38.75 70.875 38.75H64.125L54 23.25ZM40.5 29.0625H52.3125L58.9275 38.75H40.5V29.0625ZM20.25 52.3125C21.5927 52.3125 22.8803 52.9249 23.8297 54.0149C24.7791 55.105 25.3125 56.5834 25.3125 58.125C25.3125 59.6666 24.7791 61.145 23.8297 62.2351C22.8803 63.3251 21.5927 63.9375 20.25 63.9375C18.9073 63.9375 17.6197 63.3251 16.6703 62.2351C15.7209 61.145 15.1875 59.6666 15.1875 58.125C15.1875 56.5834 15.7209 55.105 16.6703 54.0149C17.6197 52.9249 18.9073 52.3125 20.25 52.3125ZM60.75 52.3125C62.0927 52.3125 63.3803 52.9249 64.3297 54.0149C65.2791 55.105 65.8125 56.5834 65.8125 58.125C65.8125 59.6666 65.2791 61.145 64.3297 62.2351C63.3803 63.3251 62.0927 63.9375 60.75 63.9375C59.4073 63.9375 58.1197 63.3251 57.1703 62.2351C56.2209 61.145 55.6875 59.6666 55.6875 58.125C55.6875 56.5834 56.2209 55.105 57.1703 54.0149C58.1197 52.9249 59.4073 52.3125 60.75 52.3125Z" fill="#E88A1B"/>
</svg>
