<svg width="60" height="68" viewBox="0 0 60 68" fill="none" xmlns="http://www.w3.org/2000/svg">
<g clip-path="url(#clip0_72_292)">
<path d="M41.4833 49.1111H54.5833C53.4833 32.6588 47.2333 22.4399 39.2167 16.3955L42.8667 7.36661C42.977 7.08011 43.0229 6.76706 43.0002 6.45552C42.9774 6.14398 42.8869 5.84369 42.7365 5.58159C42.5862 5.3195 42.3809 5.10378 42.1389 4.95378C41.8969 4.80379 41.6258 4.7242 41.35 4.72217H18.5C18.2242 4.7242 17.9531 4.80379 17.7111 4.95378C17.4691 5.10378 17.2637 5.3195 17.1134 5.58159C16.9631 5.84369 16.8725 6.14398 16.8498 6.45552C16.8271 6.76706 16.873 7.08011 16.9833 7.36661L18.9833 12.2777H35.85L34.35 16.0555H31.2667C32.2083 18.9252 32.9005 21.8922 33.3333 24.9144C33.6137 26.7891 33.7918 28.6815 33.8667 30.5811L31.2333 32.6777C31.2405 30.2345 31.062 27.7951 30.7 25.3866C30.2395 22.1811 29.445 19.0489 28.3333 16.0555H26.6667C25.1286 18.2581 23.7465 20.595 22.5333 23.0444C21.5552 25.1455 20.7248 27.3308 20.05 29.5799L17.7667 27.8611C18.4331 25.6872 19.2524 23.5775 20.2167 21.5522C21.1909 19.653 22.2593 17.8178 23.4167 16.0555H20.5L20.6333 16.3766C11.8 23.0444 5.08332 34.7555 5.08332 54.3055C5.0608 54.7165 5.11035 55.1284 5.22911 55.5175C5.34788 55.9067 5.5335 56.2653 5.77525 56.5726C6.017 56.88 6.31009 57.13 6.6376 57.3082C6.9651 57.4865 7.32052 57.5894 7.68332 57.6111H21.0167C20.4441 56.9357 20.0488 56.0931 19.875 55.1775C19.7012 54.262 19.7558 53.3097 20.0326 52.4273C20.3095 51.5449 20.7976 50.7672 21.4424 50.1815C22.0872 49.5958 22.8631 49.2252 23.6833 49.1111C23.2842 48.3439 23.0714 47.4706 23.0667 46.5799C23.0667 45.2273 23.5408 43.9301 24.3847 42.9737C25.2286 42.0173 26.3732 41.4799 27.5667 41.4799H37.5667C38.7601 41.4799 39.9047 42.0173 40.7486 42.9737C41.5925 43.9301 42.0667 45.2273 42.0667 46.5799C42.0752 47.4676 41.8738 48.3416 41.4833 49.1111Z" fill="#E88A1B"/>
<path d="M36 53.8332C36 53.3323 35.8244 52.8518 35.5118 52.4976C35.1993 52.1433 34.7754 51.9443 34.3333 51.9443H24.3333C23.8913 51.9443 23.4674 52.1433 23.1548 52.4976C22.8422 52.8518 22.6667 53.3323 22.6667 53.8332C22.6667 54.3342 22.8422 54.8146 23.1548 55.1689C23.4674 55.5231 23.8913 55.7221 24.3333 55.7221H34.3333C34.7754 55.7221 35.1993 55.5231 35.5118 55.1689C35.8244 54.8146 36 54.3342 36 53.8332Z" fill="#FF8551"/>
<path d="M37.5667 44.3887H27.5667C27.1246 44.3887 26.7007 44.5877 26.3881 44.9419C26.0756 45.2961 25.9 45.7766 25.9 46.2776C25.9 46.7785 26.0756 47.259 26.3881 47.6132C26.7007 47.9674 27.1246 48.1664 27.5667 48.1664H37.5667C38.0087 48.1664 38.4326 47.9674 38.7452 47.6132C39.0577 47.259 39.2333 46.7785 39.2333 46.2776C39.2333 45.7766 39.0577 45.2961 38.7452 44.9419C38.4326 44.5877 38.0087 44.3887 37.5667 44.3887Z" fill="#FF8551"/>
<path d="M36.6667 59.5H26.6667C26.2246 59.5 25.8007 59.699 25.4882 60.0532C25.1756 60.4075 25 60.8879 25 61.3889C25 61.8899 25.1756 62.3703 25.4882 62.7245C25.8007 63.0788 26.2246 63.2778 26.6667 63.2778H36.6667C37.1087 63.2778 37.5326 63.0788 37.8452 62.7245C38.1577 62.3703 38.3333 61.8899 38.3333 61.3889C38.3333 60.8879 38.1577 60.4075 37.8452 60.0532C37.5326 59.699 37.1087 59.5 36.6667 59.5Z" fill="#FF8551"/>
<path d="M54.5 59.5H42.8333C42.3913 59.5 41.9674 59.699 41.6548 60.0532C41.3422 60.4075 41.1667 60.8879 41.1667 61.3889C41.1667 61.8899 41.3422 62.3703 41.6548 62.7245C41.9674 63.0788 42.3913 63.2778 42.8333 63.2778H54.5C54.942 63.2778 55.3659 63.0788 55.6785 62.7245C55.9911 62.3703 56.1667 61.8899 56.1667 61.3889C56.1667 60.8879 55.9911 60.4075 55.6785 60.0532C55.3659 59.699 54.942 59.5 54.5 59.5Z" fill="#FF8551"/>
<path d="M56.1667 51.9443H44.5C44.058 51.9443 43.6341 52.1433 43.3215 52.4976C43.0089 52.8518 42.8333 53.3323 42.8333 53.8332C42.8333 54.3342 43.0089 54.8146 43.3215 55.1689C43.6341 55.5231 44.058 55.7221 44.5 55.7221H56.1667C56.6087 55.7221 57.0326 55.5231 57.3452 55.1689C57.6578 54.8146 57.8333 54.3342 57.8333 53.8332C57.8333 53.3323 57.6578 52.8518 57.3452 52.4976C57.0326 52.1433 56.6087 51.9443 56.1667 51.9443Z" fill="#FF8551"/>
</g>
<defs>
<clipPath id="clip0_72_292">
<rect width="60" height="68" fill="white"/>
</clipPath>
</defs>
</svg>
