<svg width="34" height="38" viewBox="0 0 34 38" fill="none" xmlns="http://www.w3.org/2000/svg">
<path d="M17 0C19.2543 0 21.4163 0.868698 23.0104 2.41499C24.6045 3.96129 25.5 6.05851 25.5 8.2453C25.5 10.4321 24.6045 12.5293 23.0104 14.0756C21.4163 15.6219 19.2543 16.4906 17 16.4906C14.7457 16.4906 12.5837 15.6219 10.9896 14.0756C9.39553 12.5293 8.5 10.4321 8.5 8.2453C8.5 6.05851 9.39553 3.96129 10.9896 2.41499C12.5837 0.868698 14.7457 0 17 0ZM17 38C17 38 34 32.9812 34 28.8586C34 23.9114 25.7125 18.5519 17 18.5519C8.2875 18.5519 0 23.9114 0 28.8586C0 32.9812 17 38 17 38Z" fill="#4E782F"/>
</svg>
