<svg width="61" height="63" viewBox="0 0 61 63" fill="none" xmlns="http://www.w3.org/2000/svg">
<path d="M30.5 30.1875C28.8148 30.1875 27.1985 29.4961 26.0069 28.2654C24.8153 27.0347 24.1458 25.3655 24.1458 23.625C24.1458 21.8845 24.8153 20.2153 26.0069 18.9846C27.1985 17.7539 28.8148 17.0625 30.5 17.0625C32.1852 17.0625 33.8014 17.7539 34.9931 18.9846C36.1847 20.2153 36.8541 21.8845 36.8541 23.625C36.8541 24.4868 36.6898 25.3402 36.3705 26.1364C36.0511 26.9326 35.5831 27.656 34.9931 28.2654C34.403 28.8748 33.7025 29.3582 32.9316 29.688C32.1607 30.0178 31.3344 30.1875 30.5 30.1875ZM30.5 5.25C25.7813 5.25 21.256 7.18593 17.9194 10.6319C14.5828 14.0779 12.7083 18.7516 12.7083 23.625C12.7083 37.4062 30.5 57.75 30.5 57.75C30.5 57.75 48.2916 37.4062 48.2916 23.625C48.2916 18.7516 46.4172 14.0779 43.0806 10.6319C39.744 7.18593 35.2186 5.25 30.5 5.25Z" fill="#FF8551"/>
</svg>
