<svg width="48" height="47" viewBox="0 0 48 47" fill="none" xmlns="http://www.w3.org/2000/svg">
<path d="M32.5236 18.9202L14.3884 31.1526C14.1479 31.3148 13.8574 31.3816 13.5808 31.3384C13.3043 31.2952 13.0643 31.1455 12.9137 30.9222C12.7631 30.6989 12.7141 30.4203 12.7777 30.1477C12.8412 29.8751 13.012 29.6308 13.2525 29.4686L31.3877 17.2362C31.6282 17.074 31.9187 17.0072 32.1952 17.0504C32.4718 17.0936 32.7118 17.2433 32.8624 17.4666C33.013 17.6899 33.0619 17.9685 32.9984 18.2411C32.9349 18.5137 32.7641 18.758 32.5236 18.9202Z" fill="black"/>
<path d="M31.5802 18.3315L19.3503 16.4224C19.0734 16.3792 18.8331 16.2292 18.6823 16.0057C18.5314 15.7821 18.4825 15.5031 18.5461 15.2302C18.6097 14.9572 18.7807 14.7126 19.0215 14.5502C19.2623 14.3878 19.5531 14.3209 19.8301 14.3641L33.1023 16.4375C33.2395 16.4587 33.3691 16.5065 33.4838 16.5779C33.5986 16.6494 33.6961 16.7432 33.7708 16.8539C33.8455 16.9647 33.8959 17.0902 33.9192 17.2233C33.9425 17.3565 33.9381 17.4946 33.9065 17.6297L30.857 30.7122C30.7934 30.9852 30.6223 31.2298 30.3816 31.3922C30.1408 31.5546 29.8499 31.6215 29.573 31.5783C29.2961 31.535 29.0558 31.3851 28.905 31.1615C28.7542 30.9379 28.7052 30.659 28.7688 30.386L31.5802 18.3315Z" fill="black"/>
</svg>
